<svg xmlns="http://www.w3.org/2000/svg" xmlns:xlink="http://www.w3.org/1999/xlink" viewBox="0 0 268.58 209.96">
    <defs>
        <linearGradient id="未命名漸層_16-5" x1="97.02" y1="196.47" x2="113.75" y2="196.47" xlink:href="#未命名漸層_16"/>
        <linearGradient id="未命名漸層_16-10" x1="107.29" y1="111.02" x2="120.25" y2="111.02" gradientTransform="translate(-30.08 -39.73)" xlink:href="#未命名漸層_16"/>
        <linearGradient id="未命名漸層_16-2" x1="227.72" y1="140.85" x2="240.68" y2="140.85" gradientTransform="translate(18.53 -53.28) scale(1 1.15)" xlink:href="#未命名漸層_16"/>
        <linearGradient id="未命名漸層_16-3" x1="85.23" y1="224" x2="92.27" y2="224" gradientTransform="translate(1.91 -16.43)" xlink:href="#未命名漸層_16"/>
        <linearGradient id="未命名漸層_16-4" x1="151.65" y1="244.32" x2="175.42" y2="244.32" gradientTransform="translate(10.62 -13.87)" xlink:href="#未命名漸層_16"/>
        <linearGradient id="未命名漸層_16" x1="238.87" y1="103.78" x2="260.17" y2="103.78" gradientUnits="userSpaceOnUse">
            <stop offset="0.2" stop-color="#fffce3"/>
            <stop offset="1" stop-color="#fff" stop-opacity="0"/>
        </linearGradient>
        <linearGradient id="未命名漸層_16-6" x1="212.61" y1="196.88" x2="225.57" y2="196.88" xlink:href="#未命名漸層_16"/>
        <linearGradient id="未命名漸層_16-7" x1="246.74" y1="251.06" x2="259.7" y2="251.06" gradientTransform="translate(-12.99 -21.81)" xlink:href="#未命名漸層_16"/>
        <linearGradient id="未命名漸層_16-8" x1="215.36" y1="12.59" x2="229.46" y2="12.59" xlink:href="#未命名漸層_16"/>
        <linearGradient id="未命名漸層_16-9" x1="176.74" y1="68.25" x2="195.55" y2="68.25" gradientTransform="translate(-12.32 -22.51)" xlink:href="#未命名漸層_16"/>
        <style>
            .cls-12{fill:#fffbbd}.cls-13{fill:#231815}.cls-21,.cls-22,.cls-23{fill:none;stroke:#9fa0a0;stroke-miterlimit:10}.cls-22{stroke-width:.5px}.cls-23{stroke-width:.25px}.cls-24{fill:#595757}
        </style>
    </defs>
    <title>
        1F
    </title>
    <g id="圖層_6" data-name="圖層 6">
        <polygon points="86.56 173.38 12.05 173.38 0.29 161.62 0.29 135.63 12.21 123.7 23.54 123.7 23.54 100.2 34.67 89.08 50.06 89.08 50.06 81.59 47 81.59 47 70.11 57.99 59.12 62.09 59.12 62.09 48.29 67.62 42.76 82.38 42.76 82.38 34.23 80.34 34.23 83.62 30.95 93.88 30.95 93.88 20.13 97.83 16.17 117.94 16.17 117.94 4.5 121.7 0.74 139.71 0.74 143.45 4.48 143.45 22.75 191 22.75 191 3.81 194.34 0.47 212.63 0.47 216.28 4.12 216.28 17.04 221.96 17.04 221.96 20.29 235.71 20.29 235.71 30.13 250.67 30.13 254.75 34.21 254.75 41.21 252.04 41.21 252.04 43.63 263.88 43.63 268.27 48.02 268.27 67.88 264.37 71.78 250.04 71.78 250.04 70.41 240.78 70.41 239.46 70.41 239.46 134.25 239.46 137.25 265 137.25 268.25 140.5 268.25 161.75 264.63 165.38 260.69 165.38 260.69 179.44 261.77 179.44 261.77 202.13 258.2 205.7 240.56 205.7 236.56 201.69 236.56 192.25 214.81 192.25 214.81 202.35 212.63 205.75 193.66 205.75 189.7 201.8 189.7 186.21 143.56 186.21 143.56 201.79 139.94 205.42 121.21 205.42 117.75 201.96 117.75 192.04 97.38 192.04 97.38 201.56 93.14 205.8 75.38 205.8 71.35 201.78 71.35 179.63 86.54 179.63 86.56 173.38" style="fill:#fffce3"/>
        <rect x="238.87" y="70.31" width="21.29" height="66.94" style="fill:url(#未命名漸層_16)"/>
        <rect x="246.25" y="102.45" width="12.96" height="11.81" transform="translate(253.17 -198.89) rotate(68.42)" style="fill:url(#未命名漸層_16-2)"/>
        <rect x="87.13" y="204.29" width="7.04" height="6.56" transform="translate(290.85 84.54) rotate(90)" style="fill:url(#未命名漸層_16-3)"/>
        <rect x="162.27" y="222.3" width="23.77" height="16.3" transform="translate(397.22 23.92) rotate(90)" style="fill:url(#未命名漸層_16-4)"/>
        <rect x="97.02" y="191.81" width="16.73" height="9.31" style="fill:url(#未命名漸層_16-5)"/>
        <rect x="212.61" y="192.25" width="12.96" height="9.25" style="fill:url(#未命名漸層_16-6)"/>
        <rect x="233.76" y="224.63" width="12.96" height="9.25" transform="translate(473.1 426.13) rotate(180)" style="fill:url(#未命名漸層_16-7)"/>
        <rect x="215.36" y="8.15" width="14.1" height="8.9" style="fill:url(#未命名漸層_16-8)"/>
        <rect x="164.42" y="37.75" width="18.81" height="15.98" transform="translate(120.71 187.19) rotate(-90)" style="fill:url(#未命名漸層_16-9)"/>
        <rect x="77.21" y="67.05" width="12.96" height="8.48" transform="translate(160 110.21) rotate(180)" style="fill:url(#未命名漸層_16-10)"/>
        <g id="Registration">
            <rect class="cls-12" x="189.31" y="121.84" width="39.47" height="15.1"/>
            <path class="cls-13" d="M203.17,164.24h-.34c-.91,0-1.16-.22-1.42-.62a14.56,14.56,0,0,1-.74-1.31c-.17-.31-.28-.41-.54-.41H200v1.34c0,.64,0,.7.6.82v.12h-2.14v-.12c.56-.12.61-.17.61-.82v-3.06c0-.64-.05-.72-.61-.81v-.13h2.05a2.14,2.14,0,0,1,1.31.29,1.05,1.05,0,0,1,.46.9,1.38,1.38,0,0,1-1,1.27c.11.2.52.9.73,1.25a7.9,7.9,0,0,0,.55.81,1.12,1.12,0,0,0,.58.37Zm-3-2.51a1.09,1.09,0,0,0,.81-.21,1.11,1.11,0,0,0,.31-.9c0-.88-.45-1.2-.88-1.2a.55.55,0,0,0-.31.05s-.08.09-.08.25v2Z" transform="translate(-7.38 -32.38)"/>
            <path class="cls-13" d="M206,163.43a1.8,1.8,0,0,1-1.31.84,1.5,1.5,0,0,1-1.51-1.58,1.88,1.88,0,0,1,.54-1.33,1.44,1.44,0,0,1,1.08-.48A1.14,1.14,0,0,1,206,162c0,.12,0,.17,0,.18-.24,0-1.21.11-1.92.14,0,.94.54,1.37,1.06,1.37a1.12,1.12,0,0,0,.84-.35Zm-1.42-2.35c-.28,0-.5.3-.53,1,.3,0,.6,0,.9,0,.11,0,.18,0,.18-.11C205.11,161.52,204.89,161.08,204.56,161.08Z" transform="translate(-7.38 -32.38)"/>
            <path class="cls-13" d="M207.39,163.2a.45.45,0,0,0-.13.3c0,.13.12.31.46.31h.82c.57,0,1.1.27,1.1.91a1.84,1.84,0,0,1-1.94,1.55c-.91,0-1.33-.52-1.33-.94a.48.48,0,0,1,.22-.39c.13-.1.33-.22.63-.4a1,1,0,0,1-.61-.44.65.65,0,0,1-.1-.39,3.78,3.78,0,0,0,.76-.57Zm.43.07a1.19,1.19,0,0,1-1.3-1.14,1.31,1.31,0,0,1,1.37-1.25,1.55,1.55,0,0,1,.75.19,3.25,3.25,0,0,0,1-.15l0,0a1.67,1.67,0,0,1-.27.45h-.49a1.07,1.07,0,0,1,.23.68A1.26,1.26,0,0,1,207.82,163.27Zm.05,1.27a1.39,1.39,0,0,0-.5.05.64.64,0,0,0-.34.55c0,.41.39.81,1.07.81s.92-.33.92-.73a.62.62,0,0,0-.43-.59A1.84,1.84,0,0,0,207.87,164.54Zm-.07-3.5c-.27,0-.43.35-.43.94s.17,1.13.52,1.13.44-.32.44-1S208.15,161,207.8,161Z" transform="translate(-7.38 -32.38)"/>
            <path class="cls-13" d="M209.87,164.18v-.12c.4-.07.41-.1.41-.69v-1.53c0-.45,0-.48-.33-.58v-.11a5.34,5.34,0,0,0,1.22-.27c0,.16,0,.59,0,.89v1.6c0,.56,0,.61.44.69v.12Zm.79-4a.48.48,0,1,1,.48-.47A.46.46,0,0,1,210.66,160.22Z" transform="translate(-7.38 -32.38)"/>
            <path class="cls-13" d="M214,161.8c-.16-.43-.39-.76-.81-.76a.42.42,0,0,0-.43.45c0,.33.23.47.54.65.54.3.94.53.94,1.07a1.15,1.15,0,0,1-1.26,1.06,2.76,2.76,0,0,1-.85-.15c0-.16-.07-.59-.1-.89l.1,0c.16.5.5.91,1,.91a.42.42,0,0,0,.43-.45c0-.24-.07-.44-.57-.73-.3-.18-.86-.47-.86-1.06s.46-1,1.19-1a6.14,6.14,0,0,1,.73.08c0,.26.06.69.09.82Z" transform="translate(-7.38 -32.38)"/>
            <path class="cls-13" d="M216.06,164.19a.91.91,0,0,1-.29.08c-.52,0-.83-.25-.83-.89v-2.17h-.45v-.05l.12-.19h.34v-.62a5.63,5.63,0,0,0,.81-.57h.08c0,.23,0,.75,0,1.18h.67a.3.3,0,0,1,0,.24h-.64v2c0,.56.21.67.39.67a.75.75,0,0,0,.29-.06l0,.12Z" transform="translate(-7.38 -32.38)"/>
            <path class="cls-13" d="M218.5,164.18h-1.76v-.12c.39-.07.41-.1.41-.65v-1.62c0-.4-.06-.44-.34-.53v-.1a5,5,0,0,0,1.23-.3c0,.12,0,.53,0,.8.19-.35.5-.78.87-.78a.39.39,0,0,1,.43.39.72.72,0,0,1-.38.57c-.1,0-.13,0-.19,0s-.21-.22-.35-.22-.26.06-.38.32v1.51c0,.55.06.57.48.65Z" transform="translate(-7.38 -32.38)"/>
            <path class="cls-13" d="M221.9,164.27a.58.58,0,0,1-.43-.15.69.69,0,0,1-.17-.33,2.62,2.62,0,0,1-.77.48.9.9,0,0,1-.9-.9.63.63,0,0,1,.5-.66,7,7,0,0,0,1.15-.43v-.44c0-.48-.29-.7-.51-.7a.39.39,0,0,0-.31.17,1.48,1.48,0,0,0-.17.5c0,.15-.09.21-.2.21a.39.39,0,0,1-.4-.35c0-.09.07-.18.22-.28a3.84,3.84,0,0,1,1.15-.51,1.12,1.12,0,0,1,.68.21,1.11,1.11,0,0,1,.39,1v1.31c0,.31.11.41.25.41a.34.34,0,0,0,.17,0l0,.12Zm-.62-1.83c-.11.06-.23.1-.39.19s-.41.29-.41.55c0,.42.22.59.44.59a.48.48,0,0,0,.35-.12C221.27,163.21,221.28,162.88,221.28,162.44Z" transform="translate(-7.38 -32.38)"/>
            <path class="cls-13" d="M224.3,164.19a.81.81,0,0,1-.28.08c-.52,0-.83-.25-.83-.89v-2.17h-.45l0-.05.13-.19h.34v-.62a5.54,5.54,0,0,0,.8-.57h.09c0,.23,0,.75,0,1.18h.68a.3.3,0,0,1,0,.24h-.65v2c0,.56.22.67.4.67a.83.83,0,0,0,.29-.06l0,.12Z" transform="translate(-7.38 -32.38)"/>
            <path class="cls-13" d="M225,164.18v-.12c.4-.07.42-.1.42-.69v-1.53c0-.45,0-.48-.33-.58v-.11a5.38,5.38,0,0,0,1.21-.27c0,.16,0,.59,0,.89v1.6c0,.56,0,.61.44.69v.12Zm.79-4a.48.48,0,1,1,.49-.47A.46.46,0,0,1,225.82,160.22Z" transform="translate(-7.38 -32.38)"/>
            <path class="cls-13" d="M228.83,160.88a1.7,1.7,0,1,1-1.7,1.72A1.7,1.7,0,0,1,228.83,160.88Zm-.11.17c-.38,0-.6.43-.6,1.33s.29,1.74.76,1.74c.29,0,.6-.21.6-1.4S229.17,161.05,228.72,161.05Z" transform="translate(-7.38 -32.38)"/>
            <path class="cls-13" d="M232.86,164.18v-.12c.36-.05.38-.12.38-.76v-1.22c0-.55-.25-.71-.51-.71a.87.87,0,0,0-.58.21v1.86c0,.53,0,.54.39.62v.12h-1.7v-.12c.4-.09.44-.13.44-.7v-1.57c0-.38-.05-.43-.35-.53v-.1a5.54,5.54,0,0,0,1.23-.3c0,.18,0,.38,0,.56.18-.12.3-.22.45-.31a.93.93,0,0,1,.57-.23c.64,0,.93.47.93,1.16v1.39c0,.53,0,.56.37.63v.12Z" transform="translate(-7.38 -32.38)"/>
        </g>
        <g id="Exhibition">
            <rect class="cls-12" x="103.5" y="38.19" width="39.84" height="15.1"/>
            <path class="cls-13" d="M118,77.69c0,.27-.18,1-.22,1.23h-3.83V78.8c.67-.1.73-.14.73-.84V74.78c0-.71,0-.77-.6-.83v-.13h3.51c0,.3,0,.8.08,1.13l-.12,0a2,2,0,0,0-.34-.69c-.14-.17-.31-.22-.78-.22h-.58c-.17,0-.2,0-.2.19v1.87h.76c.62,0,.64-.17.75-.66h.13V77h-.13c-.11-.47-.13-.66-.75-.66h-.76V78c0,.55.12.65.6.66h.47c.46,0,.57-.07.77-.28a2.77,2.77,0,0,0,.39-.74Z" transform="translate(-7.38 -32.38)"/>
            <path class="cls-13" d="M120,78.92V78.8c.36-.08.35-.14.21-.39l-.46-.8c-.17.28-.31.49-.45.77s-.11.33.32.42v.12H118.3V78.8a.94.94,0,0,0,.77-.51l.57-.84L119,76.28c-.23-.4-.29-.5-.62-.56V75.6H120v.12c-.35.08-.35.16-.26.32l.43.75c.19-.29.32-.52.43-.72s.12-.27-.32-.35V75.6h1.27v.12a1,1,0,0,0-.77.5l-.5.73.85,1.41c.17.29.24.38.55.44v.12Z" transform="translate(-7.38 -32.38)"/>
            <path class="cls-13" d="M123.8,78.92V78.8c.4-.09.41-.15.41-.6V76.73c0-.55-.25-.77-.57-.77a.88.88,0,0,0-.55.21v2c0,.47,0,.52.43.6v.12h-1.77V78.8c.42-.08.46-.12.46-.65v-3.7c0-.6,0-.63-.44-.74V73.6a6.34,6.34,0,0,0,1.35-.26c0,.06,0,.48,0,1V76a1.52,1.52,0,0,1,1-.5c.6,0,1,.36,1,1.22v1.42c0,.52,0,.57.38.65v.12Z" transform="translate(-7.38 -32.38)"/>
            <path class="cls-13" d="M125.85,78.92V78.8c.41-.07.43-.11.43-.72V76.5c0-.46,0-.49-.35-.6v-.11a5.57,5.57,0,0,0,1.26-.28c0,.16,0,.61,0,.92v1.65c0,.58,0,.63.46.72v.12Zm.81-4.09a.49.49,0,0,1,0-1,.47.47,0,0,1,.49.49A.48.48,0,0,1,126.66,74.83Z" transform="translate(-7.38 -32.38)"/>
            <path class="cls-13" d="M129.52,75.65a2,2,0,0,1,.46-.14,1.49,1.49,0,0,1,1.53,1.58A2,2,0,0,1,129.57,79a3.47,3.47,0,0,1-1.28-.26c0-.18,0-.38,0-.57V74.4c0-.53,0-.57-.43-.68V73.6a5.27,5.27,0,0,0,1.34-.26c0,.08,0,.8,0,1.09v1.35Zm-.32,2.57a.6.6,0,0,0,0,.25.7.7,0,0,0,.59.33c.42,0,.69-.54.69-1.49s-.49-1.43-1-1.43a.89.89,0,0,0-.32.05Z" transform="translate(-7.38 -32.38)"/>
            <path class="cls-13" d="M132,78.92V78.8c.42-.07.43-.11.43-.72V76.5c0-.46,0-.49-.34-.6v-.11a5.61,5.61,0,0,0,1.25-.28c0,.16,0,.61,0,.92v1.65c0,.58,0,.63.45.72v.12Zm.82-4.09a.49.49,0,0,1,0-1,.47.47,0,0,1,.49.49A.48.48,0,0,1,132.81,74.83Z" transform="translate(-7.38 -32.38)"/>
            <path class="cls-13" d="M135.62,78.93a1,1,0,0,1-.3.09c-.53,0-.86-.27-.86-.93V75.85H134v0l.13-.2h.34V75a5.24,5.24,0,0,0,.84-.58h.08c0,.23,0,.77,0,1.21h.7a.33.33,0,0,1,0,.25h-.66v2.08c0,.58.22.69.41.69a.79.79,0,0,0,.29-.06l0,.12Z" transform="translate(-7.38 -32.38)"/>
            <path class="cls-13" d="M136.37,78.92V78.8c.42-.07.43-.11.43-.72V76.5c0-.46,0-.49-.34-.6v-.11a5.61,5.61,0,0,0,1.25-.28c0,.16,0,.61,0,.92v1.65c0,.58,0,.63.45.72v.12Zm.82-4.09a.47.47,0,0,1-.47-.49.47.47,0,0,1,.47-.49.48.48,0,0,1,.5.49A.48.48,0,0,1,137.19,74.83Z" transform="translate(-7.38 -32.38)"/>
            <path class="cls-13" d="M140.29,75.51a1.76,1.76,0,1,1-1.75,1.78A1.75,1.75,0,0,1,140.29,75.51Zm-.11.18c-.4,0-.62.44-.62,1.36s.3,1.8.78,1.8c.31,0,.62-.21.62-1.44S140.65,75.69,140.18,75.69Z" transform="translate(-7.38 -32.38)"/>
            <path class="cls-13" d="M144.45,78.92V78.8c.38-.06.4-.13.4-.79V76.75c0-.57-.26-.73-.53-.73a.88.88,0,0,0-.6.22v1.91c0,.55,0,.56.41.65v.12h-1.75V78.8c.4-.1.45-.14.45-.73V76.45c0-.39-.05-.44-.36-.55v-.1a5.49,5.49,0,0,0,1.27-.31c0,.19,0,.39,0,.58.19-.13.32-.23.47-.32a.94.94,0,0,1,.59-.24c.66,0,1,.49,1,1.2v1.44c0,.54,0,.58.38.65v.12Z" transform="translate(-7.38 -32.38)"/>
            <path class="cls-13" d="M148.57,76.47c-.15-.45-.4-.8-.83-.8a.44.44,0,0,0-.44.48c0,.33.24.48.56.66.56.31,1,.55,1,1.11a1.19,1.19,0,0,1-1.3,1.1,2.55,2.55,0,0,1-.88-.17c0-.16-.07-.6-.11-.91l.1,0c.18.51.52.93,1,.93a.43.43,0,0,0,.45-.46c0-.24-.08-.46-.59-.75-.31-.19-.89-.49-.89-1.1s.47-1,1.23-1a6.13,6.13,0,0,1,.75.09c0,.26.06.7.09.84Z" transform="translate(-7.38 -32.38)"/>
        </g>
        <path class="cls-13" d="M201.43,137.35c-.09.45-.35,1.44-.41,1.59h-4.6v-.16c.85-.12.9-.2.9-1v-3.93c0-.87-.07-.92-.81-1v-.16h2.82v.16c-.73.13-.8.2-.8,1V138c0,.61.16.67.65.67h.58a1.06,1.06,0,0,0,.92-.31,3.73,3.73,0,0,0,.6-1Z" transform="translate(-7.38 -32.38)"/>
        <path class="cls-13" d="M204.2,134.7a2.18,2.18,0,1,1-2.18,2.21A2.18,2.18,0,0,1,204.2,134.7Zm-.13.23c-.5,0-.77.54-.77,1.69s.37,2.23,1,2.23c.38,0,.77-.26.77-1.79C205,135.71,204.64,134.93,204.07,134.93Z" transform="translate(-7.38 -32.38)"/>
        <path class="cls-13" d="M208.81,134.88a2.74,2.74,0,0,1,.58-.18,1.87,1.87,0,0,1,1.9,2,2.44,2.44,0,0,1-2.41,2.39,4.28,4.28,0,0,1-1.6-.32c0-.23,0-.47,0-.71v-4.71c0-.65,0-.7-.53-.84v-.14a7.07,7.07,0,0,0,1.66-.33c0,.11,0,1,0,1.35V135Zm-.4,3.19a.68.68,0,0,0,.06.31.87.87,0,0,0,.73.41c.52,0,.86-.67.86-1.86s-.61-1.77-1.25-1.77a1.49,1.49,0,0,0-.4.06Z" transform="translate(-7.38 -32.38)"/>
        <path class="cls-13" d="M213.8,134.88a2.74,2.74,0,0,1,.58-.18,1.86,1.86,0,0,1,1.9,2,2.44,2.44,0,0,1-2.41,2.39,4.23,4.23,0,0,1-1.59-.32c0-.23,0-.47,0-.71v-4.71c0-.65,0-.7-.54-.84v-.14a7.07,7.07,0,0,0,1.66-.33c0,.11,0,1,0,1.35V135Zm-.39,3.19a.69.69,0,0,0,.05.31.87.87,0,0,0,.73.41c.52,0,.86-.67.86-1.86s-.61-1.77-1.25-1.77a1.37,1.37,0,0,0-.39.06Z" transform="translate(-7.38 -32.38)"/>
        <path class="cls-13" d="M221.05,135c-.41.1-.48.19-.74.78s-.57,1.36-1.11,2.81-.76,2.17-.91,2.7c-.07.22-.17.27-.29.27-.29,0-.65-.22-.65-.52,0-.09,0-.18.24-.32a2.11,2.11,0,0,0,.85-.88,4.15,4.15,0,0,0,.19-.44,1.74,1.74,0,0,0-.15-.53c-.44-1.24-1.08-2.69-1.31-3.27-.17-.38-.22-.51-.65-.6v-.15h2.24V135c-.54.1-.56.18-.42.52l.89,2.26c.28-.75.59-1.5.78-2.18.12-.37.09-.48-.57-.6v-.15h1.61Z" transform="translate(-7.38 -32.38)"/>
        <g id="_105" data-name="105">
            <rect x="213.61" y="161.45" width="25.55" height="30.8" style="fill:#ffb169"/>
            <path class="cls-13" d="M225.4,209.61v-.19c1.2-.17,1.24-.24,1.24-1.2v-4.54c0-.63,0-.76-.66-.85l-.37-.05v-.16a13.55,13.55,0,0,0,2.51-.63v6.23c0,1,0,1,1.25,1.2v.19Z" transform="translate(-7.38 -32.38)"/>
            <path class="cls-13" d="M233.17,202c1.91,0,2.56,2,2.56,3.88s-.68,3.88-2.59,3.88-2.55-2.07-2.55-3.88S231.31,202,233.17,202Zm0,.28c-.8,0-1,1.88-1,3.58s.23,3.63,1,3.63,1-1.9,1-3.61S233.93,202.27,233.12,202.27Z" transform="translate(-7.38 -32.38)"/>
            <path class="cls-13" d="M241.16,202.14l0,.09-.4,1.11h-3c-.11.66-.24,1.33-.36,2a5.24,5.24,0,0,1,1.65-.39,2.06,2.06,0,0,1,2.28,1.91,2.42,2.42,0,0,1-1.15,2.05,3.92,3.92,0,0,1-2.18.85,2,2,0,0,1-1.18-.39.53.53,0,0,1-.22-.42.68.68,0,0,1,.33-.52c.14-.07.24,0,.39.13a2.2,2.2,0,0,0,1.48.69c.87,0,1.13-.69,1.13-1.69a1.74,1.74,0,0,0-1.78-1.94,3.19,3.19,0,0,0-1.13.22l-.05-.05c.2-1,.45-2.48.61-3.64Z" transform="translate(-7.38 -32.38)"/>
        </g>
        <g id="_103" data-name="103">
            <polygon points="74.25 94.16 30.09 94.16 23.92 100.2 23.92 116.88 74.25 116.88 74.25 94.16" style="fill:#ffeb82"/>
            <path class="cls-13" d="M48.41,141v-.19c1.2-.17,1.25-.24,1.25-1.2V135c0-.63,0-.76-.66-.85l-.37-.05V134a13.55,13.55,0,0,0,2.51-.63v6.23c0,1,0,1,1.24,1.2V141Z" transform="translate(-7.38 -32.38)"/>
            <path class="cls-13" d="M56.19,133.34c1.91,0,2.55,2,2.55,3.88s-.67,3.88-2.59,3.88-2.54-2.07-2.54-3.88S54.33,133.34,56.19,133.34Zm0,.28c-.8,0-1,1.88-1,3.59s.23,3.62,1,3.62,1-1.9,1-3.61S56.94,133.62,56.14,133.62Z" transform="translate(-7.38 -32.38)"/>
            <path class="cls-13" d="M59.8,134.79l.54-.74a1.89,1.89,0,0,1,1.6-.71A1.7,1.7,0,0,1,63.8,135a1.32,1.32,0,0,1-.36.9,3.66,3.66,0,0,1-1,.66c1.29.29,1.91,1,1.91,1.85,0,1.78-2.54,2.74-3.25,2.74a2,2,0,0,1-1.27-.43c-.17-.15-.22-.26-.22-.37a.59.59,0,0,1,.28-.5.23.23,0,0,1,.35,0,2.36,2.36,0,0,0,1.57.79c.61,0,1.15-.49,1.15-1.59,0-1.29-.77-1.89-1.52-1.89a2.07,2.07,0,0,0-.58.09l-.06-.22c1.23-.39,1.71-.72,1.71-1.61a1.13,1.13,0,0,0-1.18-1.26,1.71,1.71,0,0,0-1.39.8Z" transform="translate(-7.38 -32.38)"/>
        </g>
        <g id="_102" data-name="102">
            <polygon points="27.16 161.21 74.25 161.21 74.25 150.88 68.81 150.9 68.73 116.88 38.97 116.88 28.99 126.86 28.52 130.25 28.52 134.63 28.31 137.44 26.82 139.04 27.16 161.21" style="fill:#ffe2a3"/>
            <path class="cls-13" d="M48.41,174.56v-.19c1.2-.17,1.25-.24,1.25-1.2v-4.53c0-.64,0-.77-.66-.85l-.37,0v-.17a13.55,13.55,0,0,0,2.51-.62v6.22c0,1,0,1,1.24,1.2v.19Z" transform="translate(-7.38 -32.38)"/>
            <path class="cls-13" d="M56.19,167c1.91,0,2.55,2,2.55,3.87s-.67,3.89-2.59,3.89-2.54-2.08-2.54-3.89S54.33,167,56.19,167Zm0,.27c-.8,0-1,1.89-1,3.59s.23,3.62,1,3.62,1-1.89,1-3.61S56.94,167.22,56.14,167.22Z" transform="translate(-7.38 -32.38)"/>
            <path class="cls-13" d="M64.62,172.7c-.18.6-.42,1.35-.52,1.86H59.43v-.18c.65-.64,1.45-1.45,2-2.13a4.25,4.25,0,0,0,1.23-2.82c0-.84-.43-1.55-1.35-1.55a1.87,1.87,0,0,0-1.57,1l-.16-.13.64-.95A2.16,2.16,0,0,1,62,167a2,2,0,0,1,2.11,2.1c0,.94-.48,1.6-1.62,2.69-.54.53-1.16,1.12-1.69,1.62h2.28a1.29,1.29,0,0,0,1.38-.72Z" transform="translate(-7.38 -32.38)"/>
        </g>
        <g id="_101D" data-name="101D">
            <polygon points="157.98 104.63 120.12 104.63 120.12 146.54 140.91 146.54 140.78 137.5 157.98 137.54 157.98 104.63" style="fill:#ffc28e"/>
            <path class="cls-13" d="M133,158v-.19c1.2-.17,1.25-.24,1.25-1.2V152c0-.63-.05-.76-.66-.85l-.37-.05V151a13.44,13.44,0,0,0,2.5-.63v6.23c0,1,0,1,1.25,1.2V158Z" transform="translate(-7.38 -32.38)"/>
            <path class="cls-13" d="M140.8,150.34c1.9,0,2.55,2,2.55,3.88s-.67,3.88-2.59,3.88-2.54-2.07-2.54-3.88S138.94,150.34,140.8,150.34Zm-.05.28c-.8,0-1,1.88-1,3.58s.22,3.63,1,3.63,1-1.9,1-3.61S141.55,150.62,140.75,150.62Z" transform="translate(-7.38 -32.38)"/>
            <path class="cls-13" d="M144.73,158v-.19c1.2-.17,1.25-.24,1.25-1.2V152c0-.63,0-.76-.66-.85l-.37-.05V151a13.55,13.55,0,0,0,2.51-.63v6.23c0,1,0,1,1.24,1.2V158Z" transform="translate(-7.38 -32.38)"/>
            <path class="cls-13" d="M153.41,150.16a4.82,4.82,0,0,1,3.31,1,3.29,3.29,0,0,1,1.05,2.59,3.86,3.86,0,0,1-1.42,3.2,4.93,4.93,0,0,1-3.11,1h-3.31v-.19c.85-.15,1-.22,1-1.3v-4.82c0-1.08-.11-1.15-1-1.3v-.19Zm-1,6.07c0,1,.32,1.39,1.35,1.39,1.55,0,2.36-1.19,2.36-3.66a4,4,0,0,0-.94-2.83,2.41,2.41,0,0,0-1.86-.68,1.27,1.27,0,0,0-.82.18c-.12.1-.13.3-.13.71Z" transform="translate(-7.38 -32.38)"/>
        </g>
        <g id="_101C" data-name="101C">
            <rect x="83.28" y="104.71" width="36.84" height="42.17" style="fill:#ffe37c"/>
            <path class="cls-13" d="M97.19,158v-.19c1.2-.17,1.24-.24,1.24-1.2V152c0-.63,0-.76-.66-.85l-.37-.05V151a13.55,13.55,0,0,0,2.51-.63v6.23c0,1,0,1,1.25,1.2V158Z" transform="translate(-7.38 -32.38)"/>
            <path class="cls-13" d="M105,150.34c1.91,0,2.56,2,2.56,3.88s-.68,3.88-2.6,3.88-2.54-2.07-2.54-3.88S103.1,150.34,105,150.34Zm0,.28c-.8,0-1,1.88-1,3.58s.23,3.63,1,3.63,1-1.9,1-3.61S105.72,150.62,104.91,150.62Z" transform="translate(-7.38 -32.38)"/>
            <path class="cls-13" d="M108.9,158v-.19c1.2-.17,1.25-.24,1.25-1.2V152c0-.63-.05-.76-.66-.85l-.38-.05V151a13.55,13.55,0,0,0,2.51-.63v6.23c0,1,0,1,1.25,1.2V158Z" transform="translate(-7.38 -32.38)"/>
            <path class="cls-13" d="M121.23,156a13.48,13.48,0,0,1-.58,1.82,10.63,10.63,0,0,1-2,.28c-3.11,0-4.43-1.93-4.43-4,0-2.38,1.75-4.11,4.57-4.11a15.08,15.08,0,0,1,2.12.24c0,.62.11,1.35.17,1.84l-.22.05a2.16,2.16,0,0,0-1.21-1.62,2.48,2.48,0,0,0-1.16-.22c-1.8,0-2.57,1.61-2.57,3.59,0,2.31,1.08,4,2.86,4,1.11,0,1.76-.67,2.29-1.87Z" transform="translate(-7.38 -32.38)"/>
        </g>
        <g id="_101B" data-name="101B">
            <rect x="83.28" y="62.38" width="36.84" height="42.33" style="fill:#fff0a2"/>
            <path class="cls-13" d="M97.19,123.42v-.19c1.2-.17,1.24-.24,1.24-1.2v-4.54c0-.63,0-.77-.66-.85l-.37,0v-.17a12.8,12.8,0,0,0,2.51-.62V122c0,1,0,1,1.25,1.2v.19Z" transform="translate(-7.38 -32.38)"/>
            <path class="cls-13" d="M105,115.8c1.91,0,2.56,2,2.56,3.87s-.68,3.89-2.6,3.89-2.54-2.07-2.54-3.89S103.1,115.8,105,115.8Zm0,.28c-.8,0-1,1.88-1,3.58s.23,3.63,1,3.63,1-1.9,1-3.62S105.72,116.08,104.91,116.08Z" transform="translate(-7.38 -32.38)"/>
            <path class="cls-13" d="M108.9,123.42v-.19c1.2-.17,1.25-.24,1.25-1.2v-4.54c0-.63-.05-.77-.66-.85l-.38,0v-.17a12.8,12.8,0,0,0,2.51-.62V122c0,1,0,1,1.25,1.2v.19Z" transform="translate(-7.38 -32.38)"/>
            <path class="cls-13" d="M118.2,119.08c1.29.2,2.29.84,2.29,2a2,2,0,0,1-1.07,1.83,5,5,0,0,1-2.41.51h-2.92v-.19c.86-.16,1-.26,1-1.29v-4.89c0-1-.12-1.07-1-1.24v-.19h3.36a3.34,3.34,0,0,1,2,.43,1.49,1.49,0,0,1,.65,1.27C120.05,118.42,119.05,118.9,118.2,119.08ZM117,119c1.08,0,1.48-.46,1.48-1.45,0-1.25-.64-1.67-1.33-1.67a.89.89,0,0,0-.53.11c-.11.08-.12.26-.12.58V119Zm-.5,3c0,.83.32,1.11,1,1.11s1.29-.66,1.29-2-.47-1.85-1.81-1.85h-.48Z" transform="translate(-7.38 -32.38)"/>
        </g>
        <g id="_101A" data-name="101A">
            <polygon points="157.98 104.63 120.25 104.63 120.25 62.38 140.44 62.38 140.54 71.5 157.98 71.63 157.98 104.63" style="fill:#ffe0c3"/>
            <path class="cls-13" d="M133,123.42v-.19c1.2-.17,1.25-.24,1.25-1.2v-4.54c0-.63-.05-.77-.66-.85l-.37,0v-.17a12.7,12.7,0,0,0,2.5-.62V122c0,1,0,1,1.25,1.2v.19Z" transform="translate(-7.38 -32.38)"/>
            <path class="cls-13" d="M140.8,115.8c1.9,0,2.55,2,2.55,3.87s-.67,3.89-2.59,3.89-2.54-2.07-2.54-3.89S138.94,115.8,140.8,115.8Zm-.05.28c-.8,0-1,1.88-1,3.58s.22,3.63,1,3.63,1-1.9,1-3.62S141.55,116.08,140.75,116.08Z" transform="translate(-7.38 -32.38)"/>
            <path class="cls-13" d="M144.73,123.42v-.19c1.2-.17,1.25-.24,1.25-1.2v-4.54c0-.63,0-.77-.66-.85l-.37,0v-.17a12.8,12.8,0,0,0,2.51-.62V122c0,1,0,1,1.24,1.2v.19Z" transform="translate(-7.38 -32.38)"/>
            <path class="cls-13" d="M153.55,123.42v-.19c.83-.19.84-.32.63-.94-.15-.4-.35-1-.6-1.69h-2.2c-.2.55-.39,1.09-.54,1.52-.27.8-.18.91.87,1.11v.19H149.1v-.19c.79-.14,1-.29,1.37-1.36l2.48-6.33.33-.05c.75,2.12,1.53,4.21,2.32,6.31.42,1.15.54,1.27,1.28,1.43v.19Zm-1-5.9c-.37,1-.65,1.81-1,2.69h1.9Z" transform="translate(-7.38 -32.38)"/>
        </g>
    </g>
    <g id="圖層_3" data-name="圖層 3">
        <polyline class="cls-21" points="80.33 173.38 12.05 173.38 0.5 162.13 0.5 135.63 12.05 124.13 24 124.13 23.75 100.38 34.96 89.38 50.06 89.38 50.06 81.38 47 81.38 47.25 70.11 58 59.13 62.09 59.13 62.09 48.29 67.54 42.79 83.04 42.79"/>
        <polyline class="cls-21" points="86.56 170.75 86.56 179.88 97.25 179.88 97.25 192.13 117.66 192.13 117.66 180 120.44 180"/>
        <polyline class="cls-21" points="128.38 180 142.14 180 142.14 186.13 158.75 186.13"/>
        <polyline class="cls-21" points="174.5 186.13 213.23 186.13 213.5 192.25 238.93 192.25 238.63 165"/>
        <polyline class="cls-21" points="189.88 186.56 189.88 201.88 193.5 205.75 212.63 205.75 215.68 201.5"/>
        <polyline class="cls-21" points="117.71 192.54 117.71 201.88 121.21 205.71 139.96 205.71 143.56 201.79 143.56 186.29"/>
        <polyline class="cls-21" points="86.13 179.63 71.51 179.63 71.51 201.63 75.38 205.71 93.63 205.71 97.63 201.13"/>
        <polyline class="cls-21" points="236.38 201.38 240 205.75 258.25 205.75 262.25 202.13 261.76 179.13 260.54 179.13 260.54 165.38 264.63 165.38 268 161.75 268 140.75 264.63 137.25 239.44 137.25 239.44 132.69"/>
        <line class="cls-21" x1="239.46" y1="117.46" x2="239.46" y2="91.63"/>
        <line class="cls-21" x1="239.46" y1="76.25" x2="239.46" y2="71.23"/>
        <polyline class="cls-21" points="83.54 34.23 80.04 34.23 83.04 30.38 94.25 30.38 94.25 20.13 97.88 16.63 117.71 16.63 117.71 4.5 121.25 0.75 139.94 0.75 143.5 4.44 143.5 22.75 158.94 22.75"/>
        <polyline class="cls-21" points="174.44 22.63 191 22.63 191 3.81 194 0.5 212.63 0.5 216.13 4 216.13 8.38"/>
        <line class="cls-21" x1="216.13" y1="16.29" x2="216.13" y2="25.46"/>
        <polyline class="cls-21" points="216.54 17.04 221.96 17.04 221.96 20.29 235.71 20.29 235.71 30.13 250.38 30.13 254.25 34 254.25 41.38 252.21 41.38 252.21 43.63 264.46 43.63 268.08 47.25 268.08 68.29 264.48 71.9 249.71 71.9 249.71 69.13 267.25 69.13"/>
        <polyline class="cls-21" points="213.63 25.66 213.63 47.76 213.63 70.96 228.63 70.96"/>
    </g>
    <g id="圖層_4" data-name="圖層 4">
        <polyline class="cls-22" points="24.21 116.88 68.73 116.88 68.73 150.88 74.13 150.88 74.13 161.21 68.73 161.21"/>
        <polyline class="cls-22" points="59.5 161.21 27.06 161.21 27.06 139.88"/>
        <polyline class="cls-22" points="0.75 139.04 2.73 139.04 2.73 140.26 22.75 140.26"/>
        <polyline class="cls-22" points="15.13 139.88 15.13 127.88 22.25 127.88 22.25 132.75"/>
        <line class="cls-22" x1="25.13" y1="132.63" x2="28.52" y2="132.63"/>
        <line class="cls-22" x1="28.52" y1="134.63" x2="28.52" y2="130.25"/>
        <line class="cls-22" x1="39.03" y1="116.82" x2="28.99" y2="126.86"/>
        <polyline class="cls-22" points="97.38 150.75 97.38 161.21 86.19 161.21 83.47 158.5 83.47 50.52 86.18 47.81 97.38 47.81 97.38 58"/>
        <line class="cls-22" x1="83.69" y1="62.38" x2="97.38" y2="62.38"/>
        <line class="cls-22" x1="117.71" y1="62.38" x2="131.54" y2="62.38"/>
        <path class="cls-22" d="M127.62,94.92" transform="translate(-7.38 -32.38)"/>
        <polyline class="cls-22" points="155.23 151.63 155.23 161.38 178.43 161.38 178.43 138.69 158.13 138.69"/>
        <line class="cls-22" x1="158.37" y1="150.03" x2="178.43" y2="150.03"/>
        <line class="cls-22" x1="175.84" y1="138.9" x2="175.84" y2="113.96"/>
        <polyline class="cls-22" points="175.5 94.47 175.5 70.31 157.98 70.31 157.98 71.47"/>
        <polyline class="cls-22" points="178.13 70.31 178.13 48.31 155.23 48.31 155.23 57.56"/>
        <line class="cls-22" x1="155.23" y1="62.38" x2="155.23" y2="71.47"/>
        <line class="cls-22" x1="158.46" y1="59.31" x2="178.4" y2="59.31"/>
        <polyline class="cls-22" points="143.34 22.94 128.38 22.94 128.38 31.92 144.63 31.92"/>
        <line class="cls-22" x1="117.94" y1="17.03" x2="117.94" y2="25.22"/>
        <line class="cls-22" x1="108.13" y1="17.03" x2="108.13" y2="29.16"/>
        <polyline class="cls-22" points="119.94 25.66 119.94 29.16 112.75 29.16"/>
        <polyline class="cls-22" points="94.25 30.38 103.13 30.38 103.13 29.16"/>
        <line class="cls-22" x1="73.94" y1="43.16" x2="73.94" y2="64.28"/>
        <line class="cls-22" x1="62.31" y1="59.41" x2="62.31" y2="71.22"/>
        <line class="cls-22" x1="47.56" y1="71.22" x2="68.73" y2="71.22"/>
        <line class="cls-22" x1="49.94" y1="71.47" x2="49.94" y2="81.59"/>
        <polyline class="cls-22" points="64.06 71.47 64.06 84.09 74.25 84.09"/>
        <line class="cls-22" x1="74.25" y1="71.34" x2="74.25" y2="81.22"/>
        <line class="cls-22" x1="69" y1="94.16" x2="30.38" y2="94.16"/>
        <polyline class="cls-22" points="50.29 89.66 50.29 92.03 69.15 92.03"/>
        <line class="cls-22" x1="142.29" y1="25.66" x2="142.29" y2="31.92"/>
        <line class="cls-22" x1="149.71" y1="22.94" x2="149.71" y2="31.67"/>
        <polyline class="cls-22" points="157.54 25.25 157.54 31.67 154.96 31.67"/>
        <polyline class="cls-22" points="175.73 22.94 175.73 31.67 178.88 31.67"/>
        <line class="cls-22" x1="183.96" y1="22.94" x2="183.96" y2="31.67"/>
        <line class="cls-22" x1="188.88" y1="31.83" x2="213.12" y2="31.83"/>
        <line class="cls-22" x1="191.29" y1="25.46" x2="191.29" y2="31.67"/>
        <line class="cls-22" x1="193.07" y1="23.25" x2="213.12" y2="23.25"/>
        <polyline class="cls-22" points="228.63 70.96 228.63 52.42 267.88 52.42"/>
        <polyline class="cls-22" points="241.04 64.58 241.04 60.5 267.88 60.5"/>
        <polyline class="cls-22" points="228.63 58.92 235.54 58.92 235.54 57.33"/>
        <polyline class="cls-22" points="175.66 186.13 175.66 177.44 179.03 177.44"/>
        <line class="cls-22" x1="183.84" y1="186.13" x2="183.84" y2="177.44"/>
        <polyline class="cls-22" points="188.91 177.44 191.28 177.44 191.28 186.13"/>
        <line class="cls-22" x1="191.47" y1="180.13" x2="213.23" y2="180.13"/>
        <line class="cls-22" x1="215.68" y1="158.19" x2="236.72" y2="158.19"/>
        <line class="cls-22" x1="213.61" y1="161.45" x2="238.92" y2="161.45"/>
        <polyline class="cls-22" points="228.78 158.19 228.78 145.81 228.78 137.25 213.41 137.25 213.41 185.75"/>
        <line class="cls-22" x1="233.34" y1="137.25" x2="239.16" y2="137.25"/>
        <polyline class="cls-22" points="238.67 140 265.53 140 267.72 142.19"/>
        <polyline class="cls-22" points="247.67 140.26 247.67 158.79 259.31 158.79"/>
        <path class="cls-22" d="M236.16,182.5h7a8.5,8.5,0,0,1,0,1.75" transform="translate(-7.38 -32.38)"/>
        <line class="cls-22" x1="238.93" y1="165.22" x2="260.17" y2="165.22"/>
        <line class="cls-22" x1="83.47" y1="146.87" x2="97.25" y2="146.87"/>
        <line class="cls-22" x1="117.83" y1="146.87" x2="131.5" y2="146.87"/>
        <polyline class="cls-22" points="140.91 139.69 140.91 146.88 149.81 146.88 155.09 146.88 155.09 140.26 157.96 140.26 157.96 71.47 155.38 71.47 140.54 71.47 140.54 62.38 155.46 62.38"/>
        <line class="cls-22" x1="143.5" y1="137.81" x2="155.23" y2="137.81"/>
        <polyline class="cls-22" points="142.14 180 142.14 177.44 144.81 177.44"/>
        <line class="cls-22" x1="149.81" y1="186.13" x2="149.81" y2="177.44"/>
        <polyline class="cls-22" points="157.68 186.13 157.68 177.44 154.56 177.44"/>
        <line class="cls-22" x1="100.19" y1="180" x2="114.81" y2="180"/>
        <line class="cls-22" x1="107.5" y1="191.81" x2="107.5" y2="180"/>
        <polyline class="cls-22" points="71.57 110.31 74.13 110.31 74.13 99.06 71.57 99.06"/>
        <polyline class="cls-22" points="63.92 50.36 62.09 50.36 73.94 50.36"/>
        <line class="cls-22" x1="50.09" y1="79.5" x2="52.08" y2="79.5"/>
        <line class="cls-22" x1="57.08" y1="71.47" x2="57.08" y2="79.5"/>
        <line class="cls-22" x1="61.92" y1="79.5" x2="63.92" y2="79.5"/>
    </g>
    <g id="圖層_5" data-name="圖層 5">
        <line class="cls-23" x1="120.25" y1="62.54" x2="120.25" y2="146.87"/>
        <line class="cls-23" x1="83.47" y1="104.71" x2="157.96" y2="104.71"/>
    </g>
    <g id="圖層_2" data-name="圖層 2">
        <rect class="cls-24" x="2.73" y="158.59" width="2.91" height="2.81"/>
        <rect class="cls-24" x="25.61" y="158.59" width="2.91" height="2.81"/>
        <rect class="cls-24" x="25.61" y="137.49" width="2.91" height="2.81"/>
        <rect class="cls-24" x="2.73" y="137.49" width="2.91" height="2.81"/>
        <rect class="cls-24" x="48.61" y="158.59" width="2.91" height="2.81"/>
        <rect class="cls-24" x="71.51" y="158.59" width="2.91" height="2.81"/>
        <rect class="cls-24" x="12.05" y="126.39" width="2.07" height="2.07"/>
        <rect class="cls-24" x="25.8" y="114.63" width="2.72" height="2.72"/>
        <rect class="cls-24" x="48.73" y="114.63" width="2.72" height="2.72"/>
        <rect class="cls-24" x="48.73" y="91.75" width="2.72" height="2.72"/>
        <rect class="cls-24" x="48.73" y="68.75" width="2.72" height="2.72"/>
        <rect class="cls-24" x="34.96" y="92.35" width="2.12" height="2.12"/>
        <rect class="cls-24" x="68.73" y="114.63" width="5.67" height="2.72"/>
        <rect class="cls-24" x="68.73" y="91.75" width="5.67" height="2.72"/>
        <rect class="cls-24" x="68.73" y="68.75" width="5.67" height="2.72"/>
        <rect class="cls-24" x="68.73" y="137.54" width="5.67" height="2.72"/>
        <rect class="cls-24" x="71.92" y="47.87" width="2.49" height="2.49"/>
        <rect class="cls-24" x="83.39" y="32.09" width="2.39" height="2.14"/>
        <rect class="cls-24" x="62.09" y="48.29" width="1.83" height="2.07"/>
        <rect class="cls-24" x="94.8" y="47.76" width="2.45" height="5.54"/>
        <rect class="cls-24" x="117.71" y="47.76" width="2.45" height="5.54"/>
        <rect class="cls-24" x="140.91" y="47.76" width="2.45" height="5.54"/>
        <rect class="cls-24" x="155.23" y="47.76" width="2.75" height="5.54"/>
        <rect class="cls-24" x="175.73" y="47.76" width="2.75" height="5.54"/>
        <rect class="cls-24" x="213.1" y="47.76" width="2.75" height="5.54"/>
        <rect class="cls-24" x="189.73" y="47.76" width="3.71" height="5.54"/>
        <rect class="cls-24" x="94.8" y="155.54" width="2.45" height="5.67"/>
        <rect class="cls-24" x="117.66" y="155.54" width="2.45" height="5.67"/>
        <rect class="cls-24" x="140.91" y="155.54" width="2.45" height="5.67"/>
        <rect class="cls-24" x="155.23" y="155.54" width="2.45" height="5.67"/>
        <rect class="cls-24" x="175.98" y="155.54" width="2.45" height="5.67"/>
        <rect class="cls-24" x="213.23" y="155.54" width="2.45" height="5.67"/>
        <rect class="cls-24" x="236.48" y="155.54" width="2.45" height="5.67"/>
        <rect class="cls-24" x="259.31" y="158.54" width="2.45" height="2.67"/>
        <rect class="cls-24" x="189.81" y="155.54" width="3.69" height="5.83"/>
        <rect class="cls-24" x="94.66" y="137.54" width="2.72" height="2.72"/>
        <rect class="cls-24" x="117.53" y="137.54" width="2.72" height="2.72"/>
        <rect class="cls-24" x="140.78" y="137.54" width="2.72" height="2.72"/>
        <rect class="cls-24" x="94.66" y="68.75" width="2.72" height="2.72"/>
        <rect class="cls-24" x="117.53" y="68.75" width="2.72" height="2.72"/>
        <rect class="cls-24" x="140.78" y="68.75" width="2.72" height="2.72"/>
        <rect class="cls-24" x="155.09" y="137.54" width="2.72" height="2.72"/>
        <rect class="cls-24" x="155.09" y="114.71" width="2.72" height="2.72"/>
        <rect class="cls-24" x="155.09" y="91.75" width="2.72" height="2.72"/>
        <rect class="cls-24" x="155.09" y="68.75" width="2.72" height="2.72"/>
        <rect class="cls-24" x="175.68" y="68.75" width="2.72" height="2.72"/>
        <rect class="cls-24" x="175.5" y="91.04" width="3.07" height="4.14"/>
        <rect class="cls-24" x="213.09" y="68.75" width="2.72" height="2.72"/>
        <rect class="cls-24" x="233.09" y="68.75" width="8.2" height="2.72"/>
        <rect class="cls-24" x="188.91" y="68.34" width="5.26" height="3.53"/>
        <rect class="cls-24" x="175.84" y="137.54" width="2.72" height="2.72"/>
        <rect class="cls-24" x="175.28" y="113.96" width="3.28" height="4.58"/>
        <rect class="cls-24" x="213.09" y="137.54" width="2.72" height="2.72"/>
        <rect class="cls-24" x="259.18" y="137.54" width="2.72" height="2.72"/>
        <rect class="cls-24" x="233.34" y="137.54" width="5.32" height="2.72"/>
        <rect class="cls-24" x="189.31" y="137.09" width="4.69" height="3.62"/>
        <rect class="cls-24" x="94.66" y="22.94" width="2.72" height="2.72"/>
        <rect class="cls-24" x="117.71" y="22.94" width="2.72" height="2.72"/>
        <rect class="cls-24" x="140.62" y="22.94" width="2.72" height="2.72"/>
        <rect class="cls-24" x="155.24" y="22.94" width="2.72" height="2.72"/>
        <rect class="cls-24" x="175.73" y="22.94" width="2.72" height="2.72"/>
        <rect class="cls-24" x="190.35" y="22.94" width="2.72" height="2.72"/>
        <rect class="cls-24" x="213.12" y="22.94" width="2.72" height="2.72"/>
        <rect class="cls-24" x="232.06" y="91.63" width="7.12" height="2.75"/>
        <rect class="cls-24" x="232.06" y="114.44" width="7.12" height="2.75"/>
        <circle class="cls-24" cx="191.83" cy="93.11" r="2.07"/>
        <circle class="cls-24" cx="191.83" cy="115.81" r="2.07"/>
    </g>
</svg>
