<svg xmlns="http://www.w3.org/2000/svg" viewBox="0 0 2471.5 2085.5">
    <defs>
        <style>
            .cls-10,.cls-11{fill:none;stroke-miterlimit:10;stroke:gray}.cls-10{stroke-width:5px}.cls-11{stroke-width:2px}.cls-14{fill:#333}
        </style>
    </defs>
    <title>
        2F
    </title>
    <g id="圖層_4" data-name="圖層 4">
        <polygon points="1387.5 2081.5 1671.5 2081.5 1742.5 2035.5 1742.5 1860.5 1781.5 1899.5 2371.5 1899.5 2403.5 1867.5 2403.5 1526.5 2434.5 1526.5 2467.5 1493.5 2467.5 1295.5 2435.5 1263.5 2182.5 1263.5 2182.5 662 2430 662 2459.5 632.5 2459.5 439.5 2425.5 405.5 2317.5 405.5 2317.5 381.5 2332 381.5 2332 308 2297.5 273.5 2199.5 273.5 2199.5 183.5 2167.5 151.5 1984.75 151.5 1984.75 41.25 1947.5 4 1784 4 1748.5 39.5 1748.5 205.5 1312 205.5 1312 38 1281.5 7.5 1109.5 7.5 1071.5 45.5 1071.5 149.5 901.5 149.5 867.5 183.5 867.5 278.5 754.5 278.5 723.5 309.5 723.5 375.5 739.5 375.5 739.5 397.75 621.75 397.75 568 451.5 568 542 526 542 428 640 428 824 322 824 219 927 219 1141.5 110.5 1141.5 4 1248 4 1487 109 1592 649.75 1592 649.75 1860.25 688 1898.5 1284.5 1898.5 1322 1861 1322 2032.5 1387.5 2081.5" style="fill:#f1fde8"/>
        <g id="_203" data-name="203">
            <rect x="1749.5" y="439.5" width="355" height="223" style="fill:#daef9b"/>
            <path d="M2062,1034.18c-1.11,3.7-2.59,8.28-3.26,11.46H2030v-1.11c4-4,9-9,12.5-13.17,5.26-6.21,7.62-11.39,7.62-17.38,0-5.18-2.66-9.55-8.36-9.55-5.1,0-7.62,3.18-9.69,6l-1-.82,3.92-5.84c1.92-2.82,6.07-5.11,10.8-5.11,7.18,0,13,4.74,13,13,0,5.84-3,9.91-10,16.65-3.33,3.25-7.18,6.88-10.44,10h14.06c4.59-.08,5.85-.52,8.51-4.44Z" transform="translate(-140.5 -474.5)"/>
            <path d="M2082.23,998.66c11.77,0,15.76,12.51,15.76,23.9,0,10.8-4.14,24-16,24s-15.68-12.8-15.68-24C2066.33,1010.8,2070.77,998.66,2082.23,998.66Zm-.29,1.7c-5,0-6.07,11.62-6.07,22.13s1.41,22.34,6.36,22.34,6.22-11.69,6.22-22.27S2086.89,1000.36,2081.94,1000.36Z" transform="translate(-140.5 -474.5)"/>
            <path d="M2104.5,1007.61l3.33-4.58c1.78-2.52,5.18-4.37,9.84-4.37,7.18,0,11.47,4.81,11.47,9.92a8.18,8.18,0,0,1-2.22,5.55c-1.26,1.33-2.74,2.29-6.07,4.06,7.92,1.78,11.77,5.92,11.77,11.4,0,11-15.69,16.94-20,16.94a12.22,12.22,0,0,1-7.85-2.66c-1-1-1.33-1.63-1.33-2.29a3.74,3.74,0,0,1,1.7-3.11,1.41,1.41,0,0,1,2.15.15c2.29,2.21,5.62,4.88,9.69,4.88,3.78,0,7.11-3,7.11-9.84,0-7.92-4.74-11.62-9.4-11.62a14,14,0,0,0-3.55.52l-.37-1.33c7.62-2.44,10.58-4.44,10.58-9.92s-3.41-7.77-7.33-7.77-6.14,2-8.58,4.89Z" transform="translate(-140.5 -474.5)"/>
        </g>
        <g id="_201A" data-name="201A">
            <polygon points="1291.5 657.5 1291.5 574.5 1206.5 574.5 1206.5 962.5 1447.5 962.5 1447.5 657 1291.5 657.5" style="opacity:.9;fill:#84d387"/>
            <path d="M1425,1276.18c-1.11,3.7-2.59,8.28-3.26,11.46H1393v-1.11c4-4,9-9,12.5-13.17,5.26-6.21,7.62-11.39,7.62-17.38,0-5.18-2.66-9.55-8.36-9.55-5.1,0-7.62,3.18-9.69,6l-1-.82,3.92-5.84c1.92-2.82,6.07-5.11,10.8-5.11,7.18,0,13,4.74,13,12.95,0,5.84-3,9.91-10,16.65-3.33,3.25-7.18,6.88-10.44,10h14.06c4.59-.08,5.85-.52,8.51-4.44Z" transform="translate(-140.5 -474.5)"/>
            <path d="M1445.23,1240.66c11.77,0,15.76,12.51,15.76,23.9,0,10.8-4.14,24-16,24s-15.68-12.8-15.68-24C1429.33,1252.8,1433.77,1240.66,1445.23,1240.66Zm-.29,1.7c-5,0-6.07,11.62-6.07,22.13s1.41,22.34,6.36,22.34,6.22-11.69,6.22-22.27S1449.89,1242.36,1444.94,1242.36Z" transform="translate(-140.5 -474.5)"/>
            <path d="M1469.5,1287.64v-1.18c7.4-1,7.7-1.48,7.7-7.4v-28c0-3.92-.3-4.73-4.07-5.25l-2.3-.3v-1a82.18,82.18,0,0,0,15.47-3.85v38.4c0,6,.22,6.44,7.69,7.4v1.18Z" transform="translate(-140.5 -474.5)"/>
            <path d="M1523.88,1287.64v-1.18c5.11-1.11,5.18-1.92,3.85-5.77-.89-2.44-2.15-6.29-3.7-10.43h-13.54c-1.26,3.4-2.44,6.73-3.33,9.39-1.7,5-1.11,5.63,5.33,6.81v1.18h-16.06v-1.18c4.88-.81,5.85-1.77,8.44-8.36l15.31-39.07,2-.29c4.66,13.09,9.47,26,14.35,38.92,2.59,7.1,3.33,7.84,7.85,8.8v1.18Zm-6.43-36.4c-2.3,6.14-4,11.17-6.07,16.65h11.76Z" transform="translate(-140.5 -474.5)"/>
        </g>
        <g id="_201B" data-name="201B">
            <polygon points="987.5 962.5 1206.5 962.5 1206.5 574.5 1083 574.5 1083.5 595.5 987.5 595.5 987.5 962.5" style="fill:#a2dea4;opacity:.9"/>
            <path d="M1201,1276.18c-1.11,3.7-2.59,8.28-3.26,11.46H1169v-1.11c4-4,9-9,12.5-13.17,5.26-6.21,7.62-11.39,7.62-17.38,0-5.18-2.66-9.55-8.36-9.55-5.1,0-7.62,3.18-9.69,6l-1-.82,3.92-5.84c1.92-2.82,6.07-5.11,10.8-5.11,7.18,0,13,4.74,13,12.95,0,5.84-3,9.91-10,16.65-3.33,3.25-7.18,6.88-10.44,10h14.06c4.59-.08,5.85-.52,8.51-4.44Z" transform="translate(-140.5 -474.5)"/>
            <path d="M1221.23,1240.66c11.77,0,15.76,12.51,15.76,23.9,0,10.8-4.14,24-16,24s-15.68-12.8-15.68-24C1205.33,1252.8,1209.77,1240.66,1221.23,1240.66Zm-.29,1.7c-5,0-6.07,11.62-6.07,22.13s1.41,22.34,6.36,22.34,6.22-11.69,6.22-22.27S1225.9,1242.36,1220.94,1242.36Z" transform="translate(-140.5 -474.5)"/>
            <path d="M1245.5,1287.64v-1.18c7.4-1,7.7-1.48,7.7-7.4v-28c0-3.92-.3-4.73-4.07-5.25l-2.3-.3v-1a82.18,82.18,0,0,0,15.47-3.85v38.4c0,6,.22,6.44,7.69,7.4v1.18Z" transform="translate(-140.5 -474.5)"/>
            <path d="M1302.84,1260.86c8,1.26,14.13,5.18,14.13,12.36a12.5,12.5,0,0,1-6.58,11.32c-3.85,2.22-9.25,3.1-14.87,3.1h-18v-1.18c5.25-1,5.92-1.55,5.92-7.92v-30.18c0-6.44-.74-6.59-5.92-7.63v-1.18h20.71c6.15,0,9.33.89,12,2.66a9.11,9.11,0,0,1,4.07,7.85C1314.31,1256.79,1308.09,1259.75,1302.84,1260.86Zm-7.1-.3c6.66,0,9.1-2.81,9.1-9,0-7.69-3.92-10.28-8.21-10.28a5.77,5.77,0,0,0-3.26.66c-.66.52-.74,1.63-.74,3.63v14.94Zm-3.11,18.43c0,5.1,2,6.8,6.14,6.8,4.59,0,8-4.06,8-12,0-7.4-2.88-11.47-11.17-11.47h-3Z" transform="translate(-140.5 -474.5)"/>
        </g>
        <g id="_201C" data-name="201C">
            <polygon points="987.5 962.5 763.5 962.5 763.5 572.5 891 572.5 890.5 595.5 987.5 595.5 987.5 962.5" style="fill:#ceefcd"/>
            <path d="M968,1276.18c-1.11,3.7-2.59,8.28-3.26,11.46H936v-1.11c4-4,9-9,12.5-13.17,5.26-6.21,7.62-11.39,7.62-17.38,0-5.18-2.66-9.55-8.36-9.55-5.1,0-7.62,3.18-9.69,6l-1-.82,3.92-5.84c1.92-2.82,6.07-5.11,10.8-5.11,7.18,0,13,4.74,13,12.95,0,5.84-3,9.91-10,16.65-3.33,3.25-7.18,6.88-10.44,10h14.06c4.59-.08,5.85-.52,8.51-4.44Z" transform="translate(-140.5 -474.5)"/>
            <path d="M988.23,1240.66c11.77,0,15.76,12.51,15.76,23.9,0,10.8-4.14,24-16,24s-15.68-12.8-15.68-24C972.33,1252.8,976.77,1240.66,988.23,1240.66Zm-.29,1.7c-5,0-6.07,11.62-6.07,22.13s1.41,22.34,6.36,22.34,6.22-11.69,6.22-22.27S992.9,1242.36,987.94,1242.36Z" transform="translate(-140.5 -474.5)"/>
            <path d="M1012.5,1287.64v-1.18c7.4-1,7.7-1.48,7.7-7.4v-28c0-3.92-.3-4.73-4.07-5.25l-2.3-.3v-1a82.18,82.18,0,0,0,15.47-3.85v38.4c0,6,.22,6.44,7.69,7.4v1.18Z" transform="translate(-140.5 -474.5)"/>
            <path d="M1088.56,1275.81a84,84,0,0,1-3.55,11.24,66.54,66.54,0,0,1-12.58,1.7c-19.16,0-27.3-11.91-27.3-24.93,0-14.65,10.8-25.3,28.19-25.3,5.92,0,11.32,1.33,13.1,1.48.14,3.77.66,8.28,1,11.32l-1.33.29c-1.48-5.25-3.33-8.06-7.47-10a15.81,15.81,0,0,0-7.18-1.33c-11.1,0-15.83,9.92-15.83,22.12,0,14.28,6.65,24.49,17.61,24.49,6.88,0,10.87-4.14,14.13-11.54Z" transform="translate(-140.5 -474.5)"/>
        </g>
        <g id="_201D" data-name="201D">
            <polygon points="891.5 1332.5 891.25 1350.5 763.5 1350.5 763.5 962.5 987.5 962.5 987.5 1333 891.5 1332.5" style="fill:#d2f9ec"/>
            <path d="M968,1622.18c-1.11,3.7-2.59,8.28-3.26,11.46H936v-1.1c4-4,9-9,12.5-13.18,5.26-6.21,7.62-11.39,7.62-17.38,0-5.18-2.66-9.55-8.36-9.55-5.1,0-7.62,3.18-9.69,6l-1-.82,3.92-5.84c1.92-2.81,6.07-5.11,10.8-5.11,7.18,0,13,4.74,13,12.95,0,5.85-3,9.91-10,16.65-3.33,3.25-7.18,6.88-10.44,10h14.06c4.59-.08,5.85-.52,8.51-4.44Z" transform="translate(-140.5 -474.5)"/>
            <path d="M988.23,1586.66c11.77,0,15.76,12.51,15.76,23.9,0,10.8-4.14,24-16,24s-15.68-12.8-15.68-24C972.33,1598.79,976.77,1586.66,988.23,1586.66Zm-.29,1.7c-5,0-6.07,11.62-6.07,22.13s1.41,22.34,6.36,22.34,6.22-11.69,6.22-22.27S992.9,1588.36,987.94,1588.36Z" transform="translate(-140.5 -474.5)"/>
            <path d="M1012.5,1633.64v-1.18c7.4-1,7.7-1.48,7.7-7.4v-28c0-3.92-.3-4.73-4.07-5.25l-2.3-.3v-1a82.18,82.18,0,0,0,15.47-3.85v38.4c0,6,.22,6.44,7.69,7.4v1.18Z" transform="translate(-140.5 -474.5)"/>
            <path d="M1066,1585.55c8.88,0,15.91,2.07,20.43,6.22,4.06,3.77,6.51,8.73,6.51,16,0,9-3.33,15.46-8.81,19.75-5.33,4.15-11.69,6.14-19.16,6.14h-20.42v-1.18c5.25-.89,5.92-1.33,5.92-8v-29.74c0-6.66-.67-7.11-5.92-8v-1.18Zm-6.36,37.44c.08,6.07,2,8.58,8.36,8.58,9.55,0,14.58-7.32,14.58-22.56,0-7.55-2.15-13.84-5.85-17.47-3-3-6.58-4.21-11.47-4.21-3,0-4.29.51-5,1.11s-.81,1.85-.81,4.36Z" transform="translate(-140.5 -474.5)"/>
        </g>
        <g id="_201E" data-name="201E">
            <polygon points="1206.5 1350.5 1081 1350.5 1081.5 1333.5 987.5 1333 987.5 962.5 1206.5 962.5 1206.5 1350.5" style="fill:#93d2b2;opacity:.9"/>
            <path d="M1201,1622.18c-1.11,3.7-2.59,8.28-3.26,11.46H1169v-1.1c4-4,9-9,12.5-13.18,5.26-6.21,7.62-11.39,7.62-17.38,0-5.18-2.66-9.55-8.36-9.55-5.1,0-7.62,3.18-9.69,6l-1-.82,3.92-5.84c1.92-2.81,6.07-5.11,10.8-5.11,7.18,0,13,4.74,13,12.95,0,5.85-3,9.91-10,16.65-3.33,3.25-7.18,6.88-10.44,10h14.06c4.59-.08,5.85-.52,8.51-4.44Z" transform="translate(-140.5 -474.5)"/>
            <path d="M1221.23,1586.66c11.77,0,15.76,12.51,15.76,23.9,0,10.8-4.14,24-16,24s-15.68-12.8-15.68-24C1205.33,1598.79,1209.77,1586.66,1221.23,1586.66Zm-.29,1.7c-5,0-6.07,11.62-6.07,22.13s1.41,22.34,6.36,22.34,6.22-11.69,6.22-22.27S1225.9,1588.36,1220.94,1588.36Z" transform="translate(-140.5 -474.5)"/>
            <path d="M1245.5,1633.64v-1.18c7.4-1,7.7-1.48,7.7-7.4v-28c0-3.92-.3-4.73-4.07-5.25l-2.3-.3v-1a82.18,82.18,0,0,0,15.47-3.85v38.4c0,6,.22,6.44,7.69,7.4v1.18Z" transform="translate(-140.5 -474.5)"/>
            <path d="M1314.83,1622c-.37,2.59-1.7,9.84-2.15,11.61h-36.1v-1.18c6.36-.89,6.88-1.26,6.88-7.84v-30c0-6.66-.37-7.25-5.63-7.85v-1.18h22.42c7.25,0,10.14-.07,10.73-.15.07,2.81.37,7.55.74,10.73l-1.18.22a19.8,19.8,0,0,0-3.19-6.51c-1.33-1.63-2.95-2.07-7.32-2.07h-5.55c-1.55,0-1.85.3-1.85,1.78v17.68h7.18c5.84,0,6.07-1.63,7.1-6.21h1.18v14.65h-1.18c-1-4.37-1.26-6.22-7.1-6.22h-7.18v15.76c0,5.18,1.11,6.14,5.7,6.21h4.36c4.37,0,5.4-.59,7.25-2.59,1.34-1.47,2.52-4,3.78-7Z" transform="translate(-140.5 -474.5)"/>
        </g>
        <g id="_201F" data-name="201F">
            <polygon points="1447.5 964.5 1206.5 964.5 1206.5 1353.5 1293.5 1353.5 1293.5 1265.5 1447.5 1266 1447.5 964.5" style="fill:#67ba9a;opacity:.9"/>
            <path d="M1425,1622.18c-1.11,3.7-2.59,8.28-3.26,11.46H1393v-1.1c4-4,9-9,12.5-13.18,5.26-6.21,7.62-11.39,7.62-17.38,0-5.18-2.66-9.55-8.36-9.55-5.1,0-7.62,3.18-9.69,6l-1-.82,3.92-5.84c1.92-2.81,6.07-5.11,10.8-5.11,7.18,0,13,4.74,13,12.95,0,5.85-3,9.91-10,16.65-3.33,3.25-7.18,6.88-10.44,10h14.06c4.59-.08,5.85-.52,8.51-4.44Z" transform="translate(-140.5 -474.5)"/>
            <path d="M1445.23,1586.66c11.77,0,15.76,12.51,15.76,23.9,0,10.8-4.14,24-16,24s-15.68-12.8-15.68-24C1429.33,1598.79,1433.77,1586.66,1445.23,1586.66Zm-.29,1.7c-5,0-6.07,11.62-6.07,22.13s1.41,22.34,6.36,22.34,6.22-11.69,6.22-22.27S1449.89,1588.36,1444.94,1588.36Z" transform="translate(-140.5 -474.5)"/>
            <path d="M1469.5,1633.64v-1.18c7.4-1,7.7-1.48,7.7-7.4v-28c0-3.92-.3-4.73-4.07-5.25l-2.3-.3v-1a82.18,82.18,0,0,0,15.47-3.85v38.4c0,6,.22,6.44,7.69,7.4v1.18Z" transform="translate(-140.5 -474.5)"/>
            <path d="M1534.91,1596.65a21.77,21.77,0,0,0-2.3-5.7c-1.33-2.29-3.25-3.18-8.06-3.18h-5.18c-2.22,0-2.74.37-2.74,2.59V1608h8.14c5.4,0,5.85-1.18,7.1-6.36H1533v14.94h-1.18c-1.41-5-1.63-6.36-7-6.36h-8.14v13c0,7.7.45,8.14,6.73,9.25v1.18h-21.82v-1.18c5.4-1,5.92-1.55,5.92-9.25v-27.74c0-7.33-.52-7.7-5.92-8.74v-1.18h23.23c7.25,0,9.84-.07,10.65-.15.08,1.33.3,7.18.67,11.1Z" transform="translate(-140.5 -474.5)"/>
        </g>
        <g id="_202" data-name="202">
            <rect x="1750.5" y="1260.5" width="355" height="223" style="fill:#d3f5eb"/>
            <line class="cls-10" x1="1962" y1="1290.5" x2="1962" y2="1433.5"/>
            <path d="M2059.32,1849.49c-1.37,4.57-3.2,10.23-4,14.16h-35.52v-1.37c4.93-4.93,11-11,15.43-16.26,6.49-7.67,9.41-14.06,9.41-21.45,0-6.4-3.29-11.78-10.32-11.78-6.3,0-9.4,3.92-12,7.39l-1.19-1L2026,1812c2.38-3.47,7.49-6.3,13.33-6.3,8.86,0,16.07,5.84,16.07,16,0,7.22-3.65,12.24-12.32,20.55-4.11,4-8.86,8.49-12.88,12.33h17.35c5.66-.1,7.21-.64,10.5-5.48Z" transform="translate(-140.5 -474.5)"/>
            <path d="M2084.25,1805.67c14.52,0,19.45,15.43,19.45,29.49,0,13.33-5.12,29.58-19.73,29.58s-19.35-15.79-19.35-29.58C2064.62,1820.64,2070.1,1805.67,2084.25,1805.67Zm-.37,2.1c-6.11,0-7.48,14.33-7.48,27.3,0,13.14,1.73,27.57,7.85,27.57s7.67-14.43,7.67-27.48S2090,1807.77,2083.88,1807.77Z" transform="translate(-140.5 -474.5)"/>
            <path d="M2148.44,1849.49c-1.37,4.57-3.19,10.23-4,14.16H2108.9v-1.37c4.94-4.93,11-11,15.44-16.26,6.48-7.67,9.4-14.06,9.4-21.45,0-6.4-3.29-11.78-10.32-11.78-6.3,0-9.4,3.92-12,7.39l-1.19-1,4.84-7.21c2.38-3.47,7.49-6.3,13.34-6.3,8.85,0,16.07,5.84,16.07,16,0,7.22-3.66,12.24-12.33,20.55-4.11,4-8.86,8.49-12.88,12.33h17.35c5.66-.1,7.22-.64,10.5-5.48Z" transform="translate(-140.5 -474.5)"/>
        </g>
    </g>
    <g id="圖層_5" data-name="圖層 5">
        <line class="cls-11" x1="987.5" y1="595.5" x2="987.5" y2="1333"/>
        <line class="cls-11" x1="1206.5" y1="1353.5" x2="1206.5" y2="572.5"/>
        <line class="cls-11" x1="763.5" y1="963.5" x2="1448.5" y2="963.5"/>
    </g>
    <g id="圖層_2" data-name="圖層 2">
        <polygon points="1387.5 2081.5 1671.5 2081.5 1742.5 2035.5 1742.5 1860.5 1781.5 1899.5 2371.5 1899.5 2403.5 1867.5 2403.5 1526.5 2434.5 1526.5 2467.5 1493.5 2467.5 1295.5 2435.5 1263.5 2182.5 1263.5 2182.5 662 2430 662 2459.5 632.5 2459.5 439.5 2425.5 405.5 2317.5 405.5 2317.5 381.5 2332 381.5 2332 308 2297.5 273.5 2199.5 273.5 2199.5 183.5 2167.5 151.5 1984.75 151.5 1984.75 41.25 1947.5 4 1784 4 1748.5 39.5 1748.5 205.5 1312 205.5 1312 38 1281.5 7.5 1109.5 7.5 1071.5 45.5 1071.5 149.5 901.5 149.5 867.5 183.5 867.5 278.5 754.5 278.5 723.5 309.5 723.5 375.5 739.5 375.5 739.5 397.75 621.75 397.75 568 451.5 568 542 526 542 428 640 428 824 322 824 219 927 219 1141.5 110.5 1141.5 4 1248 4 1487 109 1592 649.75 1592 649.75 1860.25 688 1898.5 1284.5 1898.5 1322 1861 1322 2032.5 1387.5 2081.5" style="stroke-width:8px;stroke:gray;fill:none;stroke-miterlimit:10"/>
        <polyline class="cls-10" points="661 1008 680 1008 680 846 517 846 517 917 472 917 472 1054 444 1054 444 1388 542 1486 680 1486 680 1367 680 1079"/>
        <polyline class="cls-10" points="429 826 429 847 471 847 471 879"/>
        <polyline class="cls-10" points="570 544 570 657 630 657 680 657 680 747"/>
        <polyline class="cls-10" points="584 659 584 773 680 773"/>
        <line class="cls-10" x1="586" y1="711" x2="625" y2="711"/>
        <line class="cls-10" x1="654" y1="711" x2="680" y2="711"/>
        <polyline class="cls-10" points="667 591 680 591 680 397.75"/>
        <polyline class="cls-10" points="867 278 944 278 944 265"/>
        <line class="cls-10" x1="992" y1="265" x2="992" y2="149.5"/>
        <polyline class="cls-10" points="946 242 992 242 1045 242"/>
        <line class="cls-10" x1="1045" y1="271" x2="1102" y2="271"/>
        <polyline class="cls-10" points="1103 293 1103 211 1088 211 1088 151 1069 151"/>
        <polyline class="cls-10" points="1312 207 1177 207 1177 293 1323 293"/>
        <line class="cls-10" x1="1306" y1="209" x2="1306" y2="292"/>
        <line class="cls-10" x1="1360" y1="292" x2="1389" y2="292"/>
        <polyline class="cls-10" points="1421 292 1451 292 1451 207"/>
        <line class="cls-10" x1="1374" y1="290" x2="1374" y2="207"/>
        <polyline class="cls-10" points="1616 207 1616 292 1641 292"/>
        <line class="cls-10" x1="1671" y1="292" x2="1707" y2="292"/>
        <polyline class="cls-10" points="1735 292 1887 292 1887 211 1748 211"/>
        <line class="cls-10" x1="1757" y1="236" x2="1757" y2="290"/>
        <line class="cls-10" x1="1689" y1="290" x2="1689" y2="207"/>
        <polyline class="cls-10" points="1985 151 1961 151 1961 270 2029 270"/>
        <line class="cls-10" x1="2052" y1="268" x2="2085" y2="268"/>
        <line class="cls-10" x1="2068" y1="268" x2="2068" y2="154"/>
        <polyline class="cls-10" points="2119 268 2119 283 2198 283 2198 273"/>
        <line class="cls-10" x1="2256" y1="439" x2="2256" y2="660"/>
        <polyline class="cls-10" points="2328 409 2328 489 2459.5 489"/>
        <path class="cls-10" d="M2322.5,1136.5" transform="translate(-140.5 -474.5)"/>
        <polyline class="cls-10" points="2182 662 1748 662 1748 533 1772 533"/>
        <polyline class="cls-10" points="2027 470 2027 442 2194 442 2194 484 2105 484"/>
        <line class="cls-10" x1="2104.5" y1="662" x2="2104.5" y2="442"/>
        <line class="cls-10" x1="2106" y1="543" x2="2207" y2="543"/>
        <line class="cls-10" x1="2165" y1="484" x2="2165" y2="497"/>
        <line class="cls-10" x1="2165" y1="528" x2="2165" y2="543"/>
        <line class="cls-10" x1="1746" y1="657" x2="1616" y2="657"/>
        <line class="cls-10" x1="1616" y1="492" x2="1616" y2="526"/>
        <polyline class="cls-10" points="1613 602 1613 1325 1613 1402 1613 1517"/>
        <line class="cls-10" x1="1613" y1="1601" x2="1613" y2="1717"/>
        <line class="cls-10" x1="1613" y1="1263.5" x2="2183" y2="1263.5"/>
        <polyline class="cls-10" points="1753 1290 1753 1392 1769 1392"/>
        <line class="cls-10" x1="1769" y1="1484" x2="1965" y2="1484"/>
        <polyline class="cls-10" points="2026 1471 2026 1486 2194 1486 2194 1444 2104 1444"/>
        <line class="cls-10" x1="2105" y1="1460" x2="2105" y2="1265"/>
        <polyline class="cls-10" points="2291 1464 2276 1464 2276 1266"/>
        <line class="cls-10" x1="2105" y1="1382.5" x2="2276" y2="1382.5"/>
        <polyline class="cls-10" points="2359 1464 2394 1464 2394 1286"/>
        <polyline class="cls-10" points="2384 1464.5 2384 1525 2403 1525"/>
        <polyline class="cls-10" points="1321 1857 1385 1815 1673 1815 1744 1857"/>
        <polyline class="cls-10" points="1744 1860 1744 1717 1319 1717 1319 1861"/>
        <polyline class="cls-10" points="1773 1711 1885 1711 1885 1631"/>
        <line class="cls-10" x1="1959" y1="1631" x2="1959" y2="1899.5"/>
        <line class="cls-10" x1="1987" y1="1653" x2="2166" y2="1653"/>
        <line class="cls-10" x1="2072.83" y1="1899.5" x2="2072.83" y2="1653"/>
        <line class="cls-10" x1="2196" y1="1634" x2="2196" y2="1899.5"/>
        <polyline class="cls-10" points="2403 1714.5 2268 1714.5 2268 1634 2403.5 1634"/>
        <line class="cls-10" x1="1615" y1="1635" x2="1640" y2="1635"/>
        <line class="cls-10" x1="1672" y1="1635" x2="1705" y2="1635"/>
        <polyline class="cls-10" points="1736 1635 1758 1635 1758 1692"/>
        <line class="cls-10" x1="1688.5" y1="1635" x2="1688.5" y2="1717"/>
        <line class="cls-10" x1="1448" y1="492" x2="1448" y2="1517"/>
        <polyline class="cls-10" points="1448 1717 1448 1633 1423 1633"/>
        <line class="cls-10" x1="1392" y1="1635" x2="1359" y2="1635"/>
        <polyline class="cls-10" points="1327 1635 1305 1635 1305 1717"/>
        <polyline class="cls-10" points="1180 1637 1180 1717 1319 1717"/>
        <line class="cls-10" x1="1101" y1="1633" x2="1101" y2="1898.5"/>
        <line class="cls-10" x1="1180" y1="1656.17" x2="1305" y2="1656.17"/>
        <line class="cls-10" x1="900.5" y1="1656" x2="1065.5" y2="1656"/>
        <line class="cls-10" x1="990.5" y1="1898.5" x2="990.5" y2="1658"/>
        <line class="cls-10" x1="870" y1="1602" x2="870" y2="1898.5"/>
        <polyline class="cls-10" points="649.75 1714.5 796 1714.5 796 1633 755 1633 755 1665 649.75 1665"/>
        <polyline class="cls-10" points="1448 574.83 1291 574.83 1291 657 1448 657"/>
        <line class="cls-10" x1="997" y1="595" x2="977" y2="595"/>
        <polyline class="cls-10" points="1083 595 1083 575 1207 575"/>
        <polyline class="cls-10" points="891 595 891 575 763 575"/>
        <polyline class="cls-10" points="891 536 891 441 790 441 763.5 467.5 763.5 1460 789.25 1485.75 886 1485.75 886 1390"/>
        <polyline class="cls-10" points="1450 1266 1294 1266 1294 1353 1448 1353"/>
        <polyline class="cls-10" points="763.5 1350.83 891 1350.83 891 1333"/>
        <line class="cls-10" x1="975" y1="1333" x2="997" y2="1333"/>
        <polyline class="cls-10" points="1081 1333 1081 1351 1207 1351"/>
        <line class="cls-10" x1="1101" y1="1436" x2="1298" y2="1436"/>
        <line class="cls-10" x1="1296" y1="1484" x2="1102" y2="1484"/>
        <polyline class="cls-10" points="429 731 473 731 473 657 570 657 570 731 586 731"/>
        <line class="cls-10" x1="521" y1="731" x2="521" y2="657.5"/>
        <line class="cls-10" x1="514" y1="731" x2="528" y2="731"/>
        <polyline class="cls-10" points="680 1565 680 1591 650 1591"/>
        <line x1="1961" y1="492" x2="1961" y2="635" style="stroke:#b3b3b3;stroke-width:2px;fill:none;stroke-miterlimit:10"/>
        <line class="cls-11" x1="1959.5" y1="440.5" x2="1761.5" y2="440.5"/>
    </g>
    <g id="圖層_3" data-name="圖層 3">
        <rect class="cls-14" x="867.5" y="1266.5" width="27" height="27"/>
        <rect class="cls-14" x="1077.5" y="1266.5" width="27" height="27"/>
        <rect class="cls-14" x="1423.5" y="1054.5" width="27" height="27"/>
        <rect class="cls-14" x="1614.5" y="1054.5" width="27" height="27"/>
        <rect class="cls-14" x="1423.5" y="843.5" width="27" height="27"/>
        <rect class="cls-14" x="1614.5" y="843.5" width="27" height="27"/>
        <rect class="cls-14" x="867.5" y="632.5" width="27" height="27"/>
        <rect class="cls-14" x="1077.5" y="632.5" width="27" height="27"/>
        <rect class="cls-14" x="1291.5" y="439.5" width="23" height="53"/>
        <rect class="cls-14" x="1425.5" y="439.5" width="23" height="53"/>
        <rect class="cls-14" x="1613.5" y="439.5" width="23" height="53"/>
        <rect class="cls-14" x="1748.5" y="439.5" width="23" height="53"/>
        <rect class="cls-14" x="1958.5" y="439.5" width="23" height="53"/>
        <rect class="cls-14" x="1079.5" y="439.5" width="23" height="53"/>
        <rect class="cls-14" x="869.5" y="439.5" width="23" height="53"/>
        <rect class="cls-14" x="867.5" y="1433.5" width="23" height="53"/>
        <rect class="cls-14" x="1079.5" y="1433.5" width="23" height="53"/>
        <rect class="cls-14" x="1293.5" y="1433.5" width="23" height="53"/>
        <rect class="cls-14" x="1425.5" y="1433.5" width="23" height="53"/>
        <rect class="cls-14" x="1614.5" y="1433.5" width="23" height="53"/>
        <rect class="cls-14" x="1750.5" y="1433.5" width="23" height="53"/>
        <rect class="cls-14" x="1959.5" y="1433.5" width="23" height="53"/>
        <rect class="cls-14" x="786" y="1306" width="23" height="53" transform="translate(1989.5 60.5) rotate(90)"/>
        <rect class="cls-14" x="786" y="1516" width="23" height="53" transform="translate(2199.5 270.5) rotate(90)"/>
        <rect class="cls-14" x="786" y="1728" width="23" height="53" transform="translate(2411.5 482.5) rotate(90)"/>
        <rect class="cls-14" x="786" y="1094" width="23" height="53" transform="translate(1777.5 -151.5) rotate(90)"/>
        <rect class="cls-14" x="1959.5" y="632.5" width="23" height="27"/>
        <rect class="cls-14" x="1749.5" y="632.5" width="23" height="27"/>
        <rect class="cls-14" x="1959.5" y="1263.5" width="23" height="27"/>
        <rect class="cls-14" x="1749.5" y="1263.5" width="23" height="27"/>
        <rect class="cls-14" x="867.5" y="211.5" width="25" height="25"/>
        <rect class="cls-14" x="1078.5" y="211.5" width="25" height="25"/>
        <rect class="cls-14" x="1425.5" y="211.5" width="25" height="25"/>
        <rect class="cls-14" x="1613.5" y="211.5" width="25" height="25"/>
        <rect class="cls-14" x="1748.5" y="211.5" width="25" height="25"/>
        <rect class="cls-14" x="1959.5" y="211.5" width="23" height="23"/>
        <rect class="cls-14" x="2172.5" y="211.5" width="23" height="23"/>
        <rect class="cls-14" x="2278.5" y="294.5" width="19" height="20"/>
        <rect class="cls-14" x="2172.5" y="442.5" width="19" height="20"/>
        <rect class="cls-14" x="2385.5" y="442.5" width="19" height="20"/>
        <rect class="cls-14" x="2172.5" y="1464.5" width="19" height="20"/>
        <rect class="cls-14" x="2384.5" y="1464.5" width="19" height="20"/>
        <rect class="cls-14" x="2384.5" y="1266.5" width="19" height="20"/>
        <rect class="cls-14" x="2145.5" y="635.5" width="46" height="23"/>
        <rect class="cls-14" x="2145.5" y="1265.5" width="46" height="23"/>
        <rect class="cls-14" x="2382.5" y="635.5" width="25" height="25"/>
        <rect class="cls-14" x="1079.5" y="1689.5" width="26" height="25"/>
        <rect class="cls-14" x="1425.5" y="1689.5" width="26" height="25"/>
        <rect class="cls-14" x="1611.5" y="1689.5" width="26" height="25"/>
        <rect class="cls-14" x="1749.5" y="1689.5" width="26" height="25"/>
        <rect class="cls-14" x="1960.5" y="1689.5" width="26" height="25"/>
        <rect class="cls-14" x="2171.5" y="1689.5" width="25" height="25"/>
        <rect class="cls-14" x="867.5" y="1689.5" width="26" height="25"/>
        <rect class="cls-14" x="2173.5" y="847.5" width="19" height="20"/>
        <rect class="cls-14" x="2173.5" y="1056.5" width="19" height="20"/>
        <circle class="cls-14" cx="1761" cy="1069" r="16.5"/>
        <circle class="cls-14" cx="1761" cy="857" r="16.5"/>
        <rect class="cls-14" x="2374.5" y="840.5" width="64" height="33" rx="12"/>
        <rect x="2374.5" y="1053.5" width="64" height="33" rx="12" style="fill:#2d2527"/>
    </g>
</svg>
