<svg xmlns="http://www.w3.org/2000/svg" viewBox="0 0 257.29 197.52">
    <defs>
        <style>
            .cls-3{fill:#231815}.cls-7{fill:none;stroke:#7f8080;stroke-miterlimit:10;stroke-width:.5px}.cls-8{fill:#323333}
        </style>
    </defs>
    <title>
        3F
    </title>
    <g id="圖層_4" data-name="圖層 4">
        <polygon points="72.15 197.02 68.19 193.06 68.19 166.02 12.15 166.02 0.5 154.38 0.5 130.1 12.45 118.16 23.15 118.16 23.15 96.35 33.65 85.85 44.65 85.85 44.65 67.21 55.2 56.66 59.65 56.66 59.65 46.85 65.02 41.48 78.15 41.48 78.15 39.35 76.15 39.35 76.15 32.1 79.4 28.85 90.15 28.85 90.15 19.85 94.27 15.73 112.69 15.73 112.69 4.35 116.54 0.5 203.15 0.5 207.07 4.42 207.07 16.35 224.9 16.35 228.52 19.98 228.52 28.85 239.65 28.85 243.57 32.78 243.57 39.85 240.9 39.85 240.9 42.35 253.27 42.35 256.79 45.88 256.79 155.1 253.28 158.62 250.47 158.62 250.47 193.48 247.29 196.65 72.15 197.02" style="fill:#f1f8fe"/>
        <g id="North_Lounge" data-name="North Lounge">
            <polygon points="168.1 22.35 168.17 30.67 150.96 30.67 150.92 22.48 136.65 22.4 136.65 0.5 182.1 0.5 182.1 22.48 168.1 22.35" style="fill:#c0d6ea"/>
            <path class="cls-3" d="M153.92,58.18c-.46.1-.56.18-.58.66,0,.21,0,.39,0,1.12v2.76h-.17L150,58.94v1.79c0,.66,0,.86,0,1.09,0,.48.07.6.72.69v.12h-1.61v-.12c.52-.07.58-.18.61-.67,0-.25,0-.52,0-1.11V58.9a.6.6,0,0,0-.11-.37.75.75,0,0,0-.62-.35v-.11h1.34l2.72,3.18V60c0-.73,0-.91,0-1.11,0-.49-.18-.59-.79-.67v-.11h1.64Z" transform="translate(-9.35 -46.65)"/>
            <path class="cls-3" d="M155.65,59.58a1.57,1.57,0,1,1-1.57,1.59A1.57,1.57,0,0,1,155.65,59.58Zm-.1.16c-.35,0-.55.39-.55,1.22s.27,1.6.69,1.6.56-.19.56-1.29S156,59.74,155.55,59.74Z" transform="translate(-9.35 -46.65)"/>
            <path class="cls-3" d="M159.16,62.63h-1.63v-.12c.36-.06.38-.09.38-.6V60.42c0-.37-.06-.41-.31-.49v-.09a4.25,4.25,0,0,0,1.13-.28c0,.12,0,.49,0,.74.17-.32.46-.72.8-.72a.36.36,0,0,1,.4.36.67.67,0,0,1-.35.52.12.12,0,0,1-.17,0c-.13-.12-.2-.21-.32-.21s-.24.06-.36.3v1.39c0,.51.06.53.45.6Z" transform="translate(-9.35 -46.65)"/>
            <path class="cls-3" d="M161.64,62.63a.77.77,0,0,1-.27.08c-.48,0-.76-.24-.76-.83v-2h-.42v0l.12-.18h.31v-.57a5.21,5.21,0,0,0,.74-.52h.08c0,.21,0,.69,0,1.08H162a.25.25,0,0,1,0,.22h-.59v1.86c0,.51.19.62.36.62a.7.7,0,0,0,.27-.06l0,.11Z" transform="translate(-9.35 -46.65)"/>
            <path class="cls-3" d="M164.08,62.63v-.12c.36-.07.36-.12.36-.53V60.66c0-.49-.21-.68-.5-.68a.75.75,0,0,0-.49.19V62c0,.42,0,.46.38.53v.12h-1.58v-.12c.37-.07.41-.1.41-.58v-3.3c0-.53,0-.56-.39-.66v-.09a6,6,0,0,0,1.21-.24s0,.43,0,.92V60a1.31,1.31,0,0,1,.92-.45c.54,0,.87.32.87,1.08v1.27c0,.47,0,.51.34.58v.12Z" transform="translate(-9.35 -46.65)"/>
            <path class="cls-3" d="M170.7,61.48c-.06.33-.25,1-.29,1.15h-3.32v-.12c.62-.09.66-.14.66-.75V58.93c0-.62-.05-.65-.58-.75v-.11h2v.11c-.53.1-.58.15-.58.75v3c0,.44.12.49.47.49h.42a.75.75,0,0,0,.66-.23,2.7,2.7,0,0,0,.44-.73Z" transform="translate(-9.35 -46.65)"/>
            <path class="cls-3" d="M172.7,59.58a1.57,1.57,0,1,1-1.57,1.59A1.57,1.57,0,0,1,172.7,59.58Zm-.1.16c-.36,0-.56.39-.56,1.22s.27,1.6.7,1.6c.27,0,.55-.19.55-1.29S173,59.74,172.6,59.74Z" transform="translate(-9.35 -46.65)"/>
            <path class="cls-3" d="M177.91,62.46a6.81,6.81,0,0,0-1.22.26c0-.16,0-.33,0-.49a1.51,1.51,0,0,1-.92.48.82.82,0,0,1-.85-.93V60.31c0-.33,0-.39-.22-.44l-.12,0v-.11a9.12,9.12,0,0,0,1.16-.12c0,.25,0,.57,0,1v1c0,.48.23.62.48.62a.71.71,0,0,0,.49-.18V60.33c0-.35-.07-.4-.25-.45l-.17,0v-.11a7.84,7.84,0,0,0,1.21-.12v2.23c0,.36,0,.43.25.48l.16,0Z" transform="translate(-9.35 -46.65)"/>
            <path class="cls-3" d="M180,62.63v-.12c.34,0,.35-.11.35-.7V60.69c0-.51-.22-.66-.47-.66a.79.79,0,0,0-.53.2v1.71c0,.49,0,.5.36.57v.12h-1.56v-.12c.36-.08.4-.12.4-.64V60.42c0-.35-.05-.39-.32-.49v-.09a4.91,4.91,0,0,0,1.13-.28c0,.17,0,.35,0,.52.17-.12.28-.21.41-.29a.88.88,0,0,1,.53-.21c.59,0,.86.43.86,1.07v1.28c0,.49,0,.52.34.58v.12Z" transform="translate(-9.35 -46.65)"/>
            <path class="cls-3" d="M182.73,61.72a.42.42,0,0,0-.12.27c0,.12.11.29.42.29h.75c.53,0,1,.25,1,.84A1.69,1.69,0,0,1,183,64.54c-.84,0-1.22-.47-1.22-.86a.42.42,0,0,1,.2-.35,6.07,6.07,0,0,1,.57-.38,1,1,0,0,1-.56-.4.75.75,0,0,1-.09-.37,3.22,3.22,0,0,0,.7-.51Zm.4.06a1.1,1.1,0,0,1-1.21-1.05,1.21,1.21,0,0,1,1.27-1.15,1.47,1.47,0,0,1,.69.17,2.69,2.69,0,0,0,1-.14l0,0a1.45,1.45,0,0,1-.26.42h-.45a1,1,0,0,1,.22.63A1.15,1.15,0,0,1,183.13,61.78Zm0,1.17a1.14,1.14,0,0,0-.46,0,.6.6,0,0,0-.31.51c0,.38.35.75,1,.75s.84-.31.84-.68a.57.57,0,0,0-.39-.54A1.75,1.75,0,0,0,183.17,63Zm-.07-3.22c-.24,0-.39.32-.39.86s.16,1,.48,1,.4-.3.4-.91S183.43,59.73,183.1,59.73Z" transform="translate(-9.35 -46.65)"/>
            <path class="cls-3" d="M187.56,61.93a1.65,1.65,0,0,1-1.2.78,1.39,1.39,0,0,1-1.4-1.46,1.77,1.77,0,0,1,.5-1.23,1.35,1.35,0,0,1,1-.44,1.05,1.05,0,0,1,1.1,1c0,.12,0,.16,0,.17-.22,0-1.11.1-1.77.13,0,.86.5,1.26,1,1.26a1,1,0,0,0,.77-.32Zm-1.3-2.17c-.26,0-.46.28-.5,1,.28,0,.56,0,.84,0,.1,0,.16,0,.16-.1C186.76,60.17,186.56,59.76,186.26,59.76Z" transform="translate(-9.35 -46.65)"/>
        </g>
        <g id="Banquet_Hall" data-name="Banquet Hall">
            <polygon points="112.81 148.88 112.72 154.23 93.12 154.23 93.15 140.27 77.46 140.33 77.46 60.04 93.05 60.04 93.15 45.8 112.52 45.8 112.69 51.44 134.76 51.6 134.75 56.6 137.08 56.63 137.08 143.57 134.44 143.52 134.56 148.88 112.81 148.88" style="fill:#cfefff"/>
            <path class="cls-3" d="M97.53,143.45c.91.14,1.61.59,1.61,1.4a1.43,1.43,0,0,1-.75,1.29,3.52,3.52,0,0,1-1.69.35h-2v-.14c.6-.1.67-.17.67-.89V142c0-.73-.08-.74-.67-.86V141H97a2.19,2.19,0,0,1,1.36.31,1,1,0,0,1,.46.89C98.83,143,98.13,143.33,97.53,143.45Zm-.8,0c.75,0,1-.32,1-1,0-.87-.45-1.16-.93-1.16a.66.66,0,0,0-.37.07c-.08.06-.09.19-.09.41v1.7Zm-.36,2.09c0,.58.23.77.7.77s.91-.46.91-1.36-.33-1.3-1.27-1.3h-.34Z" transform="translate(-9.35 -46.65)"/>
            <path class="cls-3" d="M102.19,146.59a.61.61,0,0,1-.47-.17.74.74,0,0,1-.2-.37,2.81,2.81,0,0,1-.85.54,1,1,0,0,1-1-1,.71.71,0,0,1,.56-.73,9.33,9.33,0,0,0,1.27-.47v-.49c0-.52-.32-.77-.57-.77a.39.39,0,0,0-.34.19,1.51,1.51,0,0,0-.19.55c0,.17-.1.23-.22.23a.43.43,0,0,1-.44-.39c0-.09.08-.19.25-.3a4.24,4.24,0,0,1,1.26-.57,1.26,1.26,0,0,1,.75.23,1.24,1.24,0,0,1,.43,1.1v1.44c0,.34.12.46.27.46a.69.69,0,0,0,.2,0l0,.13Zm-.68-2-.44.2c-.31.17-.45.32-.45.61,0,.46.25.66.49.66a.57.57,0,0,0,.39-.14C101.5,145.42,101.51,145.05,101.51,144.57Z" transform="translate(-9.35 -46.65)"/>
            <path class="cls-3" d="M105.43,146.49v-.14c.4,0,.42-.13.42-.83v-1.35c0-.61-.27-.79-.56-.79a1,1,0,0,0-.64.24v2c0,.58,0,.59.43.68v.14H103.2v-.14c.44-.1.49-.14.49-.77v-1.73c0-.42-.06-.47-.39-.59v-.11a6.16,6.16,0,0,0,1.36-.33c0,.2,0,.41,0,.61.2-.13.33-.24.49-.34a1,1,0,0,1,.64-.25c.71,0,1,.52,1,1.28v1.54c0,.59,0,.62.41.69v.14Z" transform="translate(-9.35 -46.65)"/>
            <path class="cls-3" d="M109.59,148.62v-.13c.53-.1.58-.12.58-.8v-1.41l-.66.31a1.71,1.71,0,0,1-1.8-1.75,2.16,2.16,0,0,1,2.18-2,2.23,2.23,0,0,1,.66.12.51.51,0,0,0,.22,0,1,1,0,0,0,.36-.1l0,0c0,.17,0,.32,0,.87v3.9c0,.65,0,.69.49.79v.13Zm.58-5.19a.77.77,0,0,0-.67-.34c-.41,0-.74.39-.74,1.45s.64,1.63,1.1,1.63a.71.71,0,0,0,.31-.06Z" transform="translate(-9.35 -46.65)"/>
            <path class="cls-3" d="M115.85,146.29a7.09,7.09,0,0,0-1.46.32c0-.2,0-.41,0-.6a1.81,1.81,0,0,1-1.1.58,1,1,0,0,1-1-1.11v-1.76c0-.4,0-.47-.26-.53l-.15,0V143a10.73,10.73,0,0,0,1.39-.14c0,.29,0,.68,0,1.24v1.2c0,.57.27.74.58.74a.83.83,0,0,0,.58-.22v-2.1c0-.41-.08-.48-.3-.54l-.2,0V143a9.5,9.5,0,0,0,1.45-.14v2.67c0,.44,0,.51.3.57l.19,0Z" transform="translate(-9.35 -46.65)"/>
            <path class="cls-3" d="M119.39,145.66a2,2,0,0,1-1.44.93,1.66,1.66,0,0,1-1.67-1.75,2.06,2.06,0,0,1,.6-1.47,1.56,1.56,0,0,1,1.19-.53,1.26,1.26,0,0,1,1.32,1.24c0,.13,0,.19,0,.19-.26,0-1.33.13-2.12.16,0,1,.6,1.51,1.18,1.51a1.23,1.23,0,0,0,.92-.38Zm-1.56-2.6c-.31,0-.55.33-.59,1.13.33,0,.66,0,1,0,.12,0,.2,0,.2-.12C118.44,143.54,118.19,143.06,117.83,143.06Z" transform="translate(-9.35 -46.65)"/>
            <path class="cls-3" d="M121.51,146.5a.87.87,0,0,1-.32.09c-.57,0-.91-.29-.91-1v-2.4h-.5v0l.14-.21h.37v-.69a5.92,5.92,0,0,0,.89-.62h.09c0,.25,0,.83,0,1.3H122c0,.05,0,.2,0,.26h-.72v2.22c0,.62.24.75.44.75a.77.77,0,0,0,.32-.07l0,.13Z" transform="translate(-9.35 -46.65)"/>
            <path class="cls-3" d="M129.6,141.17c-.62.09-.68.15-.68.89v3.41c0,.72.06.78.68.88v.14h-2.39v-.14c.63-.09.67-.15.67-.88v-1.79h-2.31v1.79c0,.73.06.78.68.88v.14h-2.39v-.14c.61-.08.67-.14.67-.88v-3.41c0-.74-.08-.79-.67-.89V141h2.39v.14c-.61.1-.68.15-.68.89v1.35h2.31v-1.35c0-.73-.08-.79-.67-.89V141h2.39Z" transform="translate(-9.35 -46.65)"/>
            <path class="cls-3" d="M132.47,146.59a.63.63,0,0,1-.47-.17.73.73,0,0,1-.19-.37,2.94,2.94,0,0,1-.85.54,1,1,0,0,1-1-1,.72.72,0,0,1,.56-.73,8.4,8.4,0,0,0,1.27-.47v-.49c0-.52-.32-.77-.56-.77a.42.42,0,0,0-.35.19,2.06,2.06,0,0,0-.19.55c0,.17-.1.23-.22.23a.42.42,0,0,1-.43-.39c0-.09.07-.19.24-.3a4.28,4.28,0,0,1,1.27-.57,1.2,1.2,0,0,1,.74.23,1.22,1.22,0,0,1,.43,1.1v1.44c0,.34.13.46.28.46a.63.63,0,0,0,.19,0l0,.13Zm-.68-2-.44.2c-.31.17-.45.32-.45.61,0,.46.25.66.5.66a.55.55,0,0,0,.38-.14C131.78,145.42,131.79,145.05,131.79,144.57Z" transform="translate(-9.35 -46.65)"/>
            <path class="cls-3" d="M133.45,146.49v-.14c.44-.07.47-.11.47-.76v-4c0-.52,0-.57-.45-.67v-.12a6.69,6.69,0,0,0,1.44-.29c0,.14,0,.44,0,1.15v3.93c0,.65,0,.68.45.76v.14Z" transform="translate(-9.35 -46.65)"/>
            <path class="cls-3" d="M135.65,146.49v-.14c.44-.07.47-.11.47-.76v-4c0-.52,0-.57-.45-.67v-.12a6.69,6.69,0,0,0,1.44-.29c0,.14,0,.44,0,1.15v3.93c0,.65,0,.68.45.76v.14Z" transform="translate(-9.35 -46.65)"/>
            <path class="cls-3" d="M104,157.08a5.15,5.15,0,0,1-2.12-4.15A5.21,5.21,0,0,1,104,148.8l.1.11a6.81,6.81,0,0,0,0,8.06Z" transform="translate(-9.35 -46.65)"/>
            <path class="cls-3" d="M108.8,153.84a14.06,14.06,0,0,1-.36,1.37h-4v-.14c.73-.1.78-.17.78-.89v-3.39c0-.75-.06-.79-.7-.9v-.14H107v.14c-.63.12-.68.17-.68.9v3.59c0,.53.14.58.56.58h.5a.9.9,0,0,0,.79-.27,3.09,3.09,0,0,0,.52-.88Z" transform="translate(-9.35 -46.65)"/>
            <path class="cls-3" d="M113,155a7.09,7.09,0,0,0-1.46.32c0-.2,0-.41,0-.6a1.76,1.76,0,0,1-1.09.58,1,1,0,0,1-1-1.11v-1.76c0-.4,0-.47-.26-.53l-.15,0v-.13a10.91,10.91,0,0,0,1.39-.14c0,.29,0,.68,0,1.24V154c0,.57.27.74.58.74a.79.79,0,0,0,.57-.22v-2.1c0-.42-.07-.48-.29-.54l-.2,0v-.13a9.5,9.5,0,0,0,1.45-.14v2.67c0,.44,0,.51.29.57l.2,0Z" transform="translate(-9.35 -46.65)"/>
            <path class="cls-3" d="M115.51,155.21v-.14c.4,0,.42-.13.42-.83v-1.36c0-.6-.27-.78-.56-.78a1,1,0,0,0-.64.24v2c0,.58,0,.59.44.68v.14h-1.88v-.14c.43-.1.48-.14.48-.77v-1.73c0-.42-.06-.47-.38-.59v-.11a6.45,6.45,0,0,0,1.36-.33c0,.2,0,.41,0,.61.2-.13.33-.24.49-.34a1,1,0,0,1,.64-.25c.71,0,1,.52,1,1.28v1.54c0,.59,0,.62.4.69v.14Z" transform="translate(-9.35 -46.65)"/>
            <path class="cls-3" d="M120.86,154.41a1.89,1.89,0,0,1-1.39.9,1.65,1.65,0,0,1-1.68-1.72,1.89,1.89,0,0,1,.81-1.52,2.33,2.33,0,0,1,1.34-.51,1.34,1.34,0,0,1,.67.18c.1.09.16.15.16.25a.47.47,0,0,1-.36.42s-.07,0-.16-.09a1.32,1.32,0,0,0-.9-.41c-.32,0-.64.2-.64,1.18s.67,1.57,1.17,1.57a1.19,1.19,0,0,0,.9-.35Z" transform="translate(-9.35 -46.65)"/>
            <path class="cls-3" d="M123.28,155.21v-.14c.43-.09.43-.15.43-.63v-1.58c0-.59-.26-.82-.6-.82a.94.94,0,0,0-.59.22v2.18c0,.5,0,.55.46.63v.14h-1.89v-.14c.44-.08.48-.12.48-.69v-3.95c0-.64,0-.68-.46-.79v-.12a6.21,6.21,0,0,0,1.45-.29c0,.07,0,.52,0,1.1v1.77a1.59,1.59,0,0,1,1.1-.54c.65,0,1,.38,1,1.3v1.52c0,.56,0,.61.4.69v.14Z" transform="translate(-9.35 -46.65)"/>
            <path class="cls-3" d="M125.47,148.8a5.14,5.14,0,0,1,2.11,4.15,5.22,5.22,0,0,1-2.11,4.13l-.11-.12a6.8,6.8,0,0,0,0-8.05Z" transform="translate(-9.35 -46.65)"/>
        </g>
        <g id="South_Lounge" data-name="South Lounge">
            <polygon points="168.12 178.17 168.1 169.85 150.92 169.85 150.92 178.02 136.06 178.29 136.06 196.89 183.18 196.89 183.18 178.42 168.12 178.17" style="fill:#abe0fe"/>
            <path class="cls-3" d="M151.78,231.08c-.15-.58-.48-.93-1-.93a.65.65,0,0,0-.66.74c0,.44.24.65.85,1s1.14.73,1.14,1.47a1.46,1.46,0,0,1-1.61,1.38,4.17,4.17,0,0,1-1.06-.17c0-.14-.15-1-.15-1.07l.11,0a1.29,1.29,0,0,0,1.21,1.09c.48,0,.69-.32.69-.79s-.26-.76-.75-1.06-1.15-.74-1.15-1.46a1.34,1.34,0,0,1,1.5-1.28,6.43,6.43,0,0,1,.89.09c0,.26.07.65.12,1Z" transform="translate(-9.35 -46.65)"/>
            <path class="cls-3" d="M154.16,231.59a1.57,1.57,0,1,1-1.57,1.59A1.57,1.57,0,0,1,154.16,231.59Zm-.1.16c-.36,0-.55.4-.55,1.22s.26,1.61.69,1.61c.27,0,.55-.19.55-1.29S154.47,231.75,154.06,231.75Z" transform="translate(-9.35 -46.65)"/>
            <path class="cls-3" d="M159.38,234.47a6.38,6.38,0,0,0-1.22.27c0-.16,0-.34,0-.5a1.46,1.46,0,0,1-.92.48.82.82,0,0,1-.84-.92v-1.47c0-.34,0-.39-.22-.44l-.13,0v-.1a11.6,11.6,0,0,0,1.17-.12c0,.24,0,.57,0,1v1c0,.47.23.61.48.61a.7.7,0,0,0,.48-.18v-1.76c0-.34-.06-.4-.24-.44l-.17-.05v-.1a9.32,9.32,0,0,0,1.21-.12v2.23c0,.36,0,.42.24.47l.17,0Z" transform="translate(-9.35 -46.65)"/>
            <path class="cls-3" d="M161,234.65a.72.72,0,0,1-.26.07c-.48,0-.77-.23-.77-.82v-2h-.41v-.05l.11-.17H160v-.58a4.64,4.64,0,0,0,.74-.51h.08c0,.21,0,.7,0,1.09h.62a.29.29,0,0,1,0,.22h-.6v1.85c0,.52.2.63.37.63a1,1,0,0,0,.26-.06l0,.1Z" transform="translate(-9.35 -46.65)"/>
            <path class="cls-3" d="M163.43,234.64v-.11c.36-.08.37-.13.37-.53v-1.32c0-.49-.22-.68-.51-.68a.76.76,0,0,0-.49.18V234c0,.42,0,.46.38.53v.11h-1.57v-.11c.37-.07.4-.11.4-.58v-3.3c0-.53,0-.57-.38-.66v-.1a5.31,5.31,0,0,0,1.2-.24c0,.06,0,.44,0,.92V232a1.33,1.33,0,0,1,.92-.45c.54,0,.88.33.88,1.09V234c0,.47,0,.51.33.58v.11Z" transform="translate(-9.35 -46.65)"/>
            <path class="cls-3" d="M170.06,233.5a9.82,9.82,0,0,1-.3,1.14h-3.31v-.11c.62-.09.65-.15.65-.75V231c0-.62,0-.66-.58-.75v-.11h2v.11c-.52.1-.57.15-.57.75v3c0,.44.12.48.47.48h.42a.75.75,0,0,0,.66-.22,2.41,2.41,0,0,0,.43-.74Z" transform="translate(-9.35 -46.65)"/>
            <path class="cls-3" d="M172.05,231.59a1.57,1.57,0,1,1-1.57,1.59A1.57,1.57,0,0,1,172.05,231.59Zm-.1.16c-.35,0-.55.4-.55,1.22s.27,1.61.69,1.61.56-.19.56-1.29S172.37,231.75,172,231.75Z" transform="translate(-9.35 -46.65)"/>
            <path class="cls-3" d="M177.27,234.47a6.38,6.38,0,0,0-1.22.27c0-.16,0-.34,0-.5a1.46,1.46,0,0,1-.91.48.82.82,0,0,1-.85-.92v-1.47c0-.34,0-.39-.22-.44l-.12,0v-.1c.32,0,.83-.06,1.16-.12,0,.24,0,.57,0,1v1c0,.47.23.61.48.61a.69.69,0,0,0,.48-.18v-1.76c0-.34-.06-.4-.24-.44l-.17-.05v-.1a9.32,9.32,0,0,0,1.21-.12v2.23c0,.36,0,.42.25.47l.16,0Z" transform="translate(-9.35 -46.65)"/>
            <path class="cls-3" d="M179.37,234.64v-.11c.33-.05.35-.11.35-.7V232.7c0-.5-.23-.65-.47-.65a.81.81,0,0,0-.54.2V234c0,.49,0,.5.37.58v.11h-1.57v-.11c.37-.09.41-.12.41-.65v-1.45c0-.35,0-.39-.33-.49v-.09a5.62,5.62,0,0,0,1.14-.27c0,.17,0,.34,0,.51l.42-.29a.92.92,0,0,1,.53-.21c.59,0,.85.44.85,1.08V234c0,.49,0,.52.34.58v.11Z" transform="translate(-9.35 -46.65)"/>
            <path class="cls-3" d="M182.08,233.74a.39.39,0,0,0-.12.27c0,.12.11.29.43.29h.75c.52,0,1,.24,1,.84a1.69,1.69,0,0,1-1.78,1.42c-.84,0-1.23-.48-1.23-.86a.44.44,0,0,1,.21-.36,4,4,0,0,1,.57-.37,1,1,0,0,1-.56-.41.61.61,0,0,1-.09-.36,3.53,3.53,0,0,0,.7-.52Zm.4.06a1.1,1.1,0,0,1-1.2-1.05,1.21,1.21,0,0,1,1.26-1.16,1.49,1.49,0,0,1,.7.18,2.69,2.69,0,0,0,.95-.14l0,0a1.6,1.6,0,0,1-.25.42h-.45a1,1,0,0,1,.21.63A1.15,1.15,0,0,1,182.48,233.8Zm0,1.17a1,1,0,0,0-.46.05.58.58,0,0,0-.31.5c0,.38.36.75,1,.75s.84-.31.84-.67a.58.58,0,0,0-.39-.55A1.86,1.86,0,0,0,182.52,235Zm-.06-3.22c-.25,0-.4.32-.4.86s.16,1,.48,1,.4-.29.4-.9S182.78,231.75,182.46,231.75Z" transform="translate(-9.35 -46.65)"/>
            <path class="cls-3" d="M186.92,234a1.66,1.66,0,0,1-1.21.77,1.38,1.38,0,0,1-1.39-1.45,1.71,1.71,0,0,1,.5-1.23,1.33,1.33,0,0,1,1-.45,1,1,0,0,1,1.1,1c0,.11,0,.16,0,.16-.23,0-1.12.11-1.77.13,0,.87.49,1.27,1,1.27a1,1,0,0,0,.77-.33Zm-1.3-2.17c-.26,0-.47.28-.5.94.28,0,.55,0,.83,0,.11,0,.17,0,.17-.1C186.12,232.18,185.92,231.78,185.62,231.78Z" transform="translate(-9.35 -46.65)"/>
        </g>
    </g>
    <g id="圖層_2" data-name="圖層 2">
        <polygon points="72.15 197.02 68.19 193.06 68.19 166.02 12.15 166.02 0.5 154.38 0.5 130.1 12.45 118.16 23.15 118.16 23.15 96.35 33.65 85.85 44.65 85.85 44.65 67.21 55.2 56.66 59.65 56.66 59.65 46.85 65.02 41.48 78.15 41.48 78.15 39.35 76.15 39.35 76.15 32.1 79.4 28.85 90.15 28.85 90.15 19.85 94.27 15.73 112.69 15.73 112.69 4.35 116.54 0.5 203.15 0.5 207.07 4.42 207.07 16.35 224.9 16.35 228.52 19.98 228.52 28.85 239.65 28.85 243.57 32.78 243.57 39.85 240.9 39.85 240.9 42.35 253.27 42.35 256.79 45.88 256.79 155.1 253.28 158.62 250.47 158.62 250.47 193.48 247.29 196.65 72.15 197.02" style="fill:none;stroke:#7f8080;stroke-miterlimit:10"/>
        <polyline class="cls-7" points="68.4 165.78 71.02 165.78 71.02 41.48"/>
        <line class="cls-7" x1="71.31" y1="154.23" x2="71.77" y2="154.23"/>
        <polyline class="cls-7" points="76.58 154.23 137.08 154.23 137.08 143.52 134.56 143.52 134.56 148.97 112.81 148.97 112.81 154.13"/>
        <polyline class="cls-7" points="77.46 154.04 77.46 144.48 82.58 144.48 82.58 154.04"/>
        <polyline class="cls-7" points="93.02 149.23 93.02 140.29 77.46 140.29 77.46 131.96"/>
        <line class="cls-7" x1="77.46" y1="127.1" x2="77.46" y2="117.35"/>
        <line class="cls-7" x1="77.46" y1="112.6" x2="77.46" y2="87.98"/>
        <line class="cls-7" x1="77.46" y1="82.6" x2="77.46" y2="70.98"/>
        <polyline class="cls-7" points="77.46 66.1 77.46 59.98 93.15 59.98 93.15 46.02"/>
        <path class="cls-7" d="M91.88,92.67v9.08H86.81V95.42l3-3h56.66v10.8h-2.27V98.17H122.08v-5.5" transform="translate(-9.35 -46.65)"/>
        <line class="cls-7" x1="137.08" y1="65.85" x2="137.08" y2="93.48"/>
        <line class="cls-7" x1="137.08" y1="107.35" x2="137.08" y2="134.71"/>
        <polyline class="cls-7" points="68.4 173.27 79.15 173.27 79.15 169.77 82.81 169.77 82.81 178.23 68.71 178.23"/>
        <line class="cls-7" x1="90.71" y1="196.98" x2="90.71" y2="169.77"/>
        <line class="cls-7" x1="93.31" y1="172.02" x2="112.31" y2="172.02"/>
        <line class="cls-7" x1="103.31" y1="172.27" x2="103.31" y2="196.69"/>
        <line class="cls-7" x1="115.08" y1="170.02" x2="115.08" y2="196.93"/>
        <polyline class="cls-7" points="136.06 196.69 136.06 169.69 138.31 169.69"/>
        <polyline class="cls-7" points="135.82 178.23 122.81 178.23 122.81 172.02 136.06 172.02"/>
        <line class="cls-7" x1="141.4" y1="169.69" x2="145.06" y2="169.69"/>
        <line class="cls-7" x1="148.06" y1="169.69" x2="155.15" y2="169.69"/>
        <polyline class="cls-7" points="150.92 169.85 150.92 178.23 135.23 178.23"/>
        <line class="cls-7" x1="143.2" y1="178.02" x2="143.2" y2="169.85"/>
        <line class="cls-7" x1="163.73" y1="169.85" x2="171.15" y2="169.85"/>
        <polyline class="cls-7" points="168.1 170.02 168.1 178.23 196.31 178.23 196.31 172.02 182.9 172.02"/>
        <polyline class="cls-7" points="182.9 196.52 182.9 169.85 180.81 169.85"/>
        <line class="cls-7" x1="177.56" y1="169.85" x2="173.81" y2="169.85"/>
        <line class="cls-7" x1="175.9" y1="177.94" x2="175.9" y2="170.02"/>
        <line class="cls-7" x1="204.31" y1="196.52" x2="204.31" y2="171.85"/>
        <line class="cls-7" x1="206.56" y1="171.85" x2="225.73" y2="171.85"/>
        <line class="cls-7" x1="215.73" y1="172.1" x2="215.73" y2="196.35"/>
        <line class="cls-7" x1="228.15" y1="196.35" x2="228.15" y2="171.85"/>
        <polyline class="cls-7" points="250.18 178.23 235.81 178.23 235.81 169.94 250.18 169.94"/>
        <polyline class="cls-7" points="170.47 154.23 170.47 46.02 148.31 46.02 148.31 154.23"/>
        <path class="cls-7" d="M179.82,200.88" transform="translate(-9.35 -46.65)"/>
        <line class="cls-7" x1="170.71" y1="154.23" x2="148.07" y2="154.23"/>
        <polyline class="cls-7" points="90.65 29.06 98.73 29.06 98.73 28.35 99.94 28.35"/>
        <line class="cls-7" x1="102.4" y1="28.35" x2="105.69" y2="28.35"/>
        <polyline class="cls-7" points="107.73 28.35 115.02 28.35 115.02 22.35 114.06 22.35 112.69 22.35 112.69 15.35"/>
        <line class="cls-7" x1="103.4" y1="15.98" x2="103.4" y2="28.35"/>
        <polyline class="cls-7" points="138.4 30.67 122.83 30.67 122.83 22.35 150.92 22.35 150.92 30.67"/>
        <line class="cls-7" x1="157.4" y1="30.67" x2="147.83" y2="30.67"/>
        <line class="cls-7" x1="144.96" y1="30.67" x2="141.27" y2="30.67"/>
        <line class="cls-7" x1="143.2" y1="22.48" x2="143.2" y2="30.67"/>
        <line class="cls-7" x1="136.21" y1="30.67" x2="136.21" y2="23.95"/>
        <line class="cls-7" x1="136.65" y1="22.35" x2="136.65" y2="0.85"/>
        <line class="cls-7" x1="161.56" y1="30.67" x2="171.31" y2="30.67"/>
        <line class="cls-7" x1="173.98" y1="30.67" x2="177.73" y2="30.67"/>
        <polyline class="cls-7" points="180.56 30.67 196.23 30.67 196.23 22.48 167.98 22.48 167.98 30.67"/>
        <line class="cls-7" x1="175.85" y1="30.67" x2="175.85" y2="22.48"/>
        <line class="cls-7" x1="182.9" y1="30.67" x2="182.9" y2="23.85"/>
        <line class="cls-7" x1="182.31" y1="22.35" x2="182.31" y2="0.5"/>
        <line class="cls-7" x1="206.39" y1="7.35" x2="182.31" y2="7.35"/>
        <polyline class="cls-7" points="206.65 16.44 204.05 16.44 204.05 30.67"/>
        <line class="cls-7" x1="204.23" y1="28.27" x2="211.15" y2="28.27"/>
        <polyline class="cls-7" points="228.37 29.19 228.37 29.85 220.31 29.85 220.31 28.27 219.06 28.27"/>
        <line class="cls-7" x1="216.65" y1="28.27" x2="213.4" y2="28.27"/>
        <line class="cls-7" x1="215.73" y1="28.1" x2="215.73" y2="16.44"/>
        <polyline class="cls-7" points="181.98 149.6 192.15 149.6 198.56 143.19 218.9 143.19 218.9 149.77 228.33 149.77 228.33 154.23 180.65 154.23 180.65 144.94 190.23 144.94 196.22 138.95 213.4 138.95"/>
        <line class="cls-7" x1="232.15" y1="143.94" x2="218.9" y2="143.94"/>
        <line class="cls-7" x1="223.06" y1="134.19" x2="213.94" y2="143.31"/>
        <polyline class="cls-7" points="228.33 138.75 228.33 134.19 256.79 134.19"/>
        <polyline class="cls-7" points="250.18 158.44 247.87 158.44 247.87 151.73 249.02 151.73 249.02 134.02"/>
        <line class="cls-7" x1="236.9" y1="154.23" x2="236.9" y2="134.19"/>
        <line class="cls-7" x1="238.15" y1="152.04" x2="237.08" y2="152.04"/>
        <line class="cls-7" x1="245.15" y1="152.04" x2="247.86" y2="152.04"/>
        <polyline class="cls-7" points="225.23 51.52 228.65 51.52 228.65 46.02 180.65 46.02 180.65 55.69 189.9 55.69 195.9 61.69 213.56 61.69"/>
        <line class="cls-7" x1="229.65" y1="55.69" x2="225.31" y2="55.69"/>
        <polyline class="cls-7" points="225.31 54.94 225.31 56.77 218.9 56.77"/>
        <polyline class="cls-7" points="225.31 52.02 225.31 50.35 218.9 50.35 218.9 57.44 198.65 57.44 192.6 51.4 182.2 51.4 182.2 46.02"/>
        <polyline class="cls-7" points="213.81 57.44 222.94 66.56 247.66 66.56 256.15 66.56"/>
        <polyline class="cls-7" points="256.33 68.56 247.83 68.56 247.83 66.35"/>
        <polyline class="cls-7" points="256.33 131.93 247.66 131.93 247.66 134.19"/>
        <polyline class="cls-7" points="242.56 42.85 242.56 51.02 256.33 51.02"/>
        <line class="cls-7" x1="234.65" y1="46.02" x2="234.65" y2="66.35"/>
    </g>
    <g id="圖層_3" data-name="圖層 3">
        <rect class="cls-8" x="90.15" y="65.85" width="3" height="3"/>
        <rect class="cls-8" x="112.33" y="65.85" width="3" height="3"/>
        <rect class="cls-8" x="148.4" y="65.85" width="2.71" height="2.71"/>
        <rect class="cls-8" x="167.98" y="66.02" width="2.71" height="2.54"/>
        <rect class="cls-8" x="222.89" y="66.02" width="5.45" height="2.54"/>
        <rect class="cls-8" x="247.66" y="66.02" width="2.54" height="2.54"/>
        <rect class="cls-8" x="148.4" y="87.98" width="2.71" height="2.71"/>
        <rect class="cls-8" x="167.98" y="88.14" width="2.71" height="2.54"/>
        <rect class="cls-8" x="247.66" y="88.14" width="5.61" height="2.54"/>
        <rect class="cls-8" x="148.4" y="109.89" width="2.71" height="2.71"/>
        <rect class="cls-8" x="167.98" y="110.06" width="2.71" height="2.54"/>
        <rect class="cls-8" x="247.66" y="110.06" width="5.61" height="2.54"/>
        <rect class="cls-8" x="148.4" y="131.77" width="2.71" height="2.71"/>
        <rect class="cls-8" x="167.98" y="131.93" width="2.71" height="2.54"/>
        <rect class="cls-8" x="222.89" y="131.93" width="5.45" height="2.54"/>
        <rect class="cls-8" x="247.66" y="131.93" width="2.54" height="2.54"/>
        <rect class="cls-8" x="134.33" y="65.85" width="2.75" height="3"/>
        <rect class="cls-8" x="90.65" y="46.02" width="2.5" height="5.5"/>
        <rect class="cls-8" x="112.73" y="46.02" width="2.25" height="5.5"/>
        <rect class="cls-8" x="134.81" y="46.02" width="2.27" height="5.5"/>
        <rect class="cls-8" x="148.62" y="46.02" width="2.27" height="5.5"/>
        <rect class="cls-8" x="168.2" y="46.02" width="2.27" height="5.5"/>
        <rect class="cls-8" x="182.2" y="46.02" width="2.27" height="5.5"/>
        <rect class="cls-8" x="204.12" y="46.02" width="2.27" height="5.5"/>
        <rect class="cls-8" x="226.06" y="46.02" width="2.27" height="2.5"/>
        <rect class="cls-8" x="90.15" y="131.71" width="3" height="3"/>
        <rect class="cls-8" x="112.33" y="131.71" width="3" height="3"/>
        <rect class="cls-8" x="134.33" y="131.71" width="2.75" height="3"/>
        <rect class="cls-8" x="90.81" y="149.23" width="2.33" height="5"/>
        <rect class="cls-8" x="112.81" y="149.23" width="2.17" height="5"/>
        <rect class="cls-8" x="134.56" y="149.23" width="2.52" height="5"/>
        <rect class="cls-8" x="148.31" y="149.23" width="2.52" height="5"/>
        <rect class="cls-8" x="167.98" y="149.23" width="2.52" height="5"/>
        <rect class="cls-8" x="181.98" y="149.23" width="2.52" height="5"/>
        <rect class="cls-8" x="204.06" y="149.23" width="2.52" height="5"/>
        <rect class="cls-8" x="225.81" y="151.71" width="2.52" height="2.52"/>
        <rect class="cls-8" x="90.71" y="175.73" width="2.31" height="2.5"/>
        <rect class="cls-8" x="68.71" y="151.73" width="2.31" height="2.5"/>
        <rect class="cls-8" x="66.02" y="131.96" width="5" height="2.5"/>
        <rect class="cls-8" x="66.02" y="109.83" width="5" height="2.5"/>
        <rect class="cls-8" x="66.02" y="87.83" width="5" height="2.5"/>
        <rect class="cls-8" x="66.02" y="66.1" width="5" height="2.5"/>
        <rect class="cls-8" x="68.71" y="175.73" width="2.31" height="2.5"/>
        <rect class="cls-8" x="112.77" y="175.73" width="2.31" height="2.5"/>
        <rect class="cls-8" x="148.6" y="175.73" width="2.31" height="2.5"/>
        <rect class="cls-8" x="134.67" y="175.73" width="2.31" height="2.5"/>
        <rect class="cls-8" x="148.6" y="192.23" width="2.31" height="2.5"/>
        <rect class="cls-8" x="168.1" y="192.23" width="2.31" height="2.5"/>
        <rect class="cls-8" x="168.1" y="175.73" width="2.31" height="2.5"/>
        <rect class="cls-8" x="182.02" y="175.73" width="2.31" height="2.5"/>
        <rect class="cls-8" x="204.07" y="175.73" width="2.31" height="2.5"/>
        <rect class="cls-8" x="226.16" y="175.73" width="2.31" height="2.5"/>
        <rect class="cls-8" x="247.86" y="151.73" width="2.31" height="2.5"/>
        <rect class="cls-8" x="247.86" y="175.73" width="2.31" height="2.5"/>
        <rect class="cls-8" x="90.65" y="22.35" width="2.33" height="2.33"/>
        <rect class="cls-8" x="112.69" y="22.35" width="2.33" height="2.33"/>
        <rect class="cls-8" x="134.52" y="22.35" width="2.33" height="2.33"/>
        <rect class="cls-8" x="148.58" y="22.35" width="2.33" height="2.33"/>
        <rect class="cls-8" x="148.58" y="5.85" width="2.33" height="2.33"/>
        <rect class="cls-8" x="168.17" y="5.85" width="2.33" height="2.33"/>
        <rect class="cls-8" x="168.17" y="22.35" width="2.33" height="2.33"/>
        <rect class="cls-8" x="182.14" y="22.35" width="2.33" height="2.33"/>
        <rect class="cls-8" x="204.05" y="22.35" width="2.33" height="2.33"/>
        <rect class="cls-8" x="226.03" y="22.35" width="2.33" height="2.33"/>
        <rect class="cls-8" x="237.2" y="31.02" width="1.93" height="1.93"/>
        <rect class="cls-8" x="247.97" y="46.3" width="1.93" height="1.93"/>
    </g>
</svg>
