<svg xmlns="http://www.w3.org/2000/svg" viewBox="0 0 257.29 197.52">
    <defs>
        <style>
            .cls-3{fill:#231815}.cls-6{fill:none;stroke:#7f8080;stroke-miterlimit:10;stroke-width:.5px}.cls-7{fill:#323333}
        </style>
    </defs>
    <title>
        4F
    </title>
    <g id="圖層_2" data-name="圖層 2">
        <polygon points="72.15 197.02 68.19 193.06 68.19 166.02 12.15 166.02 0.5 154.38 0.5 130.1 12.45 118.16 23.15 118.16 23.15 96.35 33.65 85.85 44.65 85.85 44.65 67.21 55.2 56.66 59.65 56.66 59.65 46.85 65.02 41.48 78.15 41.48 78.15 39.35 76.15 39.35 76.15 32.1 79.4 28.85 90.15 28.85 90.15 19.85 94.27 15.73 112.69 15.73 112.69 4.35 116.54 0.5 203.15 0.5 207.07 4.42 207.07 16.35 224.9 16.35 228.52 19.98 228.52 28.85 239.65 28.85 243.57 32.78 243.57 39.85 240.9 39.85 240.9 42.35 253.27 42.35 256.79 45.88 256.79 155.1 253.28 158.62 250.47 158.62 250.47 193.48 247.29 196.65 72.15 197.02" style="fill:#f9f4ff"/>
        <g id="Joy">
            <polygon points="168.3 178.04 168.18 169.85 150.96 169.85 150.96 178.1 136.46 178.17 136.46 196.85 182.8 196.85 182.8 178.1 168.3 178.04" style="fill:#d3d5fb"/>
            <path class="cls-3" d="M170.3,234.51c-.66.12-.74.18-.74,1.06V239c0,1.22-.07,2-.74,2.65a3,3,0,0,1-1.41.71l0-.15a1.58,1.58,0,0,0,.92-1.52c0-.59.05-.9.05-1.66v-3.43c0-.89-.11-.95-.82-1.06v-.16h2.79Z" transform="translate(-13.35 -52.65)"/>
            <path class="cls-3" d="M172.83,236.48a2.22,2.22,0,1,1-2.22,2.25A2.22,2.22,0,0,1,172.83,236.48Zm-.14.23c-.51,0-.79.56-.79,1.72,0,1.31.38,2.27,1,2.27.39,0,.79-.27.79-1.82C173.67,237.5,173.27,236.71,172.69,236.71Z" transform="translate(-13.35 -52.65)"/>
            <path class="cls-3" d="M179.81,236.75c-.42.11-.49.2-.75.79s-.58,1.39-1.14,2.87-.77,2.2-.92,2.74c-.07.23-.17.27-.29.27-.3,0-.67-.22-.67-.52,0-.1,0-.19.25-.33a2.07,2.07,0,0,0,.86-.9,3,3,0,0,0,.2-.44,1.78,1.78,0,0,0-.15-.54c-.46-1.27-1.1-2.74-1.34-3.33-.17-.38-.22-.52-.66-.61v-.15h2.28v.15c-.55.11-.57.19-.43.54l.91,2.29c.28-.76.6-1.52.79-2.22.12-.37.09-.48-.58-.61v-.15h1.64Z" transform="translate(-13.35 -52.65)"/>
        </g>
        <g id="Elegance">
            <polygon points="167.77 23.4 167.85 31.64 151.39 31.64 151.36 23.29 136.9 23.29 136.9 0.77 182.9 0.77 182.9 23.17 167.77 23.4" style="fill:#ede6f8"/>
            <path class="cls-3" d="M163.17,69.68c0,.32-.21,1.22-.26,1.44h-4.48V71c.79-.11.86-.15.86-1V66.28c0-.83,0-.9-.7-1v-.15h2.78c.9,0,1.25,0,1.33,0,0,.35,0,.94.09,1.33l-.15,0a2.4,2.4,0,0,0-.39-.81c-.17-.2-.37-.25-.91-.25h-.69c-.19,0-.23,0-.23.22v2.19h.89c.73,0,.75-.2.88-.77h.15v1.81h-.15c-.13-.54-.15-.77-.88-.77h-.89v2c0,.64.14.76.71.77h.54c.54,0,.67-.08.9-.32a3.66,3.66,0,0,0,.47-.88Z" transform="translate(-13.35 -52.65)"/>
            <path class="cls-3" d="M163.62,71.12V71c.48-.08.51-.12.51-.83V65.77c0-.57,0-.63-.48-.74V64.9a6.73,6.73,0,0,0,1.56-.31c0,.15,0,.48,0,1.26v4.29c0,.71,0,.74.48.83v.15Z" transform="translate(-13.35 -52.65)"/>
            <path class="cls-3" d="M169.56,70.21a2.18,2.18,0,0,1-1.58,1,1.81,1.81,0,0,1-1.82-1.91,2.25,2.25,0,0,1,.65-1.61,1.75,1.75,0,0,1,1.3-.58,1.38,1.38,0,0,1,1.44,1.36c0,.15,0,.2-.05.21-.29.06-1.45.14-2.32.18,0,1.12.65,1.65,1.29,1.65a1.36,1.36,0,0,0,1-.43Zm-1.71-2.84c-.34,0-.6.37-.65,1.24.37,0,.73,0,1.09,0,.14,0,.22,0,.22-.13C168.51,67.9,168.25,67.37,167.85,67.37Z" transform="translate(-13.35 -52.65)"/>
            <path class="cls-3" d="M171.26,69.94a.52.52,0,0,0-.15.36c0,.15.14.37.56.37h1c.68,0,1.33.32,1.33,1.1a2.22,2.22,0,0,1-2.34,1.86c-1.1,0-1.61-.62-1.61-1.12a.57.57,0,0,1,.27-.47,5.41,5.41,0,0,1,.75-.49,1.27,1.27,0,0,1-.73-.53.8.8,0,0,1-.12-.48,4.61,4.61,0,0,0,.92-.67Zm.52.08a1.43,1.43,0,0,1-1.57-1.37,1.58,1.58,0,0,1,1.66-1.52,2,2,0,0,1,.9.23,3.55,3.55,0,0,0,1.25-.18l0,0a2.28,2.28,0,0,1-.33.55l-.59,0a1.23,1.23,0,0,1,.28.82A1.51,1.51,0,0,1,171.78,70Zm.06,1.53a1.36,1.36,0,0,0-.61.07.77.77,0,0,0-.4.66c0,.49.47,1,1.29,1s1.1-.41,1.1-.88a.75.75,0,0,0-.51-.72A2.34,2.34,0,0,0,171.84,71.55Zm-.08-4.22c-.32,0-.53.43-.53,1.13s.22,1.37.64,1.37.52-.39.52-1.18S172.18,67.33,171.76,67.33Z" transform="translate(-13.35 -52.65)"/>
            <path class="cls-3" d="M177,71.23a.67.67,0,0,1-.51-.18.8.8,0,0,1-.21-.41,3.19,3.19,0,0,1-.93.59,1.1,1.1,0,0,1-1.09-1.09.77.77,0,0,1,.61-.8,9.25,9.25,0,0,0,1.39-.51v-.54c0-.57-.35-.84-.62-.84a.44.44,0,0,0-.37.21,1.63,1.63,0,0,0-.21.6c0,.18-.11.25-.24.25a.46.46,0,0,1-.48-.42c0-.1.08-.21.27-.33a4.68,4.68,0,0,1,1.38-.63,1.29,1.29,0,0,1,.82.26,1.34,1.34,0,0,1,.47,1.19v1.58c0,.37.13.5.3.5a.76.76,0,0,0,.21,0l0,.14ZM176.24,69c-.14.07-.29.12-.48.22-.34.18-.49.35-.49.67,0,.51.27.72.54.72a.6.6,0,0,0,.42-.15C176.23,70,176.24,69.55,176.24,69Z" transform="translate(-13.35 -52.65)"/>
            <path class="cls-3" d="M180.52,71.12V71c.44-.06.46-.14.46-.91V68.58c0-.66-.3-.85-.62-.85a1,1,0,0,0-.7.26v2.23c0,.64.05.65.48.75v.15h-2V71c.47-.11.53-.15.53-.84v-1.9c0-.46-.07-.51-.42-.64v-.12a6.55,6.55,0,0,0,1.48-.36c0,.22,0,.45,0,.67.22-.14.37-.26.55-.37a1.1,1.1,0,0,1,.69-.28c.77,0,1.12.57,1.12,1.41v1.67c0,.65,0,.68.44.76v.15Z" transform="translate(-13.35 -52.65)"/>
            <path class="cls-3" d="M186.36,70.25a2.11,2.11,0,0,1-1.52,1A1.8,1.8,0,0,1,183,69.35a2,2,0,0,1,.88-1.66,2.61,2.61,0,0,1,1.47-.56,1.44,1.44,0,0,1,.72.2c.11.1.17.16.17.27a.51.51,0,0,1-.38.46s-.08,0-.17-.09a1.48,1.48,0,0,0-1-.45c-.35,0-.7.22-.7,1.28,0,1.22.73,1.72,1.27,1.72a1.32,1.32,0,0,0,1-.38Z" transform="translate(-13.35 -52.65)"/>
            <path class="cls-3" d="M190.18,70.21a2.17,2.17,0,0,1-1.57,1,1.82,1.82,0,0,1-1.83-1.91,2.3,2.3,0,0,1,.65-1.61,1.77,1.77,0,0,1,1.31-.58,1.38,1.38,0,0,1,1.44,1.36c0,.15,0,.2-.05.21-.29.06-1.46.14-2.32.18,0,1.12.65,1.65,1.28,1.65a1.36,1.36,0,0,0,1-.43Zm-1.7-2.84c-.34,0-.61.37-.65,1.24.36,0,.72,0,1.09,0,.14,0,.22,0,.22-.13C189.14,67.9,188.87,67.37,188.48,67.37Z" transform="translate(-13.35 -52.65)"/>
        </g>
    </g>
    <g id="圖層_3" data-name="圖層 3">
        <polygon points="72.15 197.02 68.19 193.06 68.19 166.02 12.15 166.02 0.5 154.38 0.5 130.1 12.45 118.16 23.15 118.16 23.15 96.35 33.65 85.85 44.65 85.85 44.65 67.21 55.2 56.66 59.65 56.66 59.65 46.85 65.02 41.48 78.15 41.48 78.15 39.35 76.15 39.35 76.15 32.1 79.4 28.85 90.15 28.85 90.15 19.85 94.27 15.73 112.69 15.73 112.69 4.35 116.54 0.5 203.15 0.5 207.07 4.42 207.07 16.35 224.9 16.35 228.52 19.98 228.52 28.85 239.65 28.85 243.57 32.78 243.57 39.85 240.9 39.85 240.9 42.35 253.27 42.35 256.79 45.88 256.79 155.1 253.28 158.62 250.47 158.62 250.47 193.48 247.29 196.65 72.15 197.02" style="fill:none;stroke:#7f8080;stroke-miterlimit:10"/>
    </g>
    <g id="圖層_5" data-name="圖層 5">
        <polyline class="cls-6" points="68.5 165.76 71.93 165.76 71.93 41.48"/>
        <polyline class="cls-6" points="68.5 173.1 79.86 173.1 79.86 169.73 83.55 169.73 83.55 178.03 68.5 178.03"/>
        <line class="cls-6" x1="91.33" y1="171.48" x2="91.33" y2="196.98"/>
        <line class="cls-6" x1="93.55" y1="171.85" x2="112.56" y2="171.85"/>
        <line class="cls-6" x1="103.61" y1="172.04" x2="103.61" y2="196.95"/>
        <line class="cls-6" x1="115.19" y1="171.48" x2="115.19" y2="197.02"/>
        <polyline class="cls-6" points="136.35 197.02 136.35 169.94 134.1 169.94 134.1 171.85 123.27 171.85 123.27 177.85 136.35 178.03 150.96 178.03 150.96 170.1"/>
        <line class="cls-6" x1="138.79" y1="169.94" x2="136.35" y2="169.94"/>
        <line class="cls-6" x1="141.41" y1="169.94" x2="145.38" y2="169.94"/>
        <line class="cls-6" x1="147.97" y1="169.94" x2="162.86" y2="169.94"/>
        <line class="cls-6" x1="143.4" y1="170.15" x2="143.4" y2="178.03"/>
        <line class="cls-6" x1="167.24" y1="169.94" x2="171.11" y2="169.94"/>
        <polyline class="cls-6" points="168.18 170.2 168.18 178.03 182.8 178.03"/>
        <line class="cls-6" x1="173.93" y1="169.94" x2="177.86" y2="169.94"/>
        <polyline class="cls-6" points="180.37 169.94 182.8 169.94 182.8 197.02"/>
        <line class="cls-6" x1="175.74" y1="169.94" x2="175.74" y2="178.03"/>
        <polyline class="cls-6" points="182.8 171.79 195.83 171.79 195.83 178.03 182.8 178.03"/>
        <line class="cls-6" x1="203.86" y1="171.79" x2="203.86" y2="196.74"/>
        <line class="cls-6" x1="206.27" y1="171.79" x2="224.71" y2="171.79"/>
        <line class="cls-6" x1="215.49" y1="196.72" x2="215.49" y2="171.79"/>
        <line class="cls-6" x1="227.71" y1="171.79" x2="227.71" y2="196.69"/>
        <polyline class="cls-6" points="250.47 169.82 235.49 169.82 235.49 178.03 250.47 178.03"/>
        <polyline class="cls-6" points="250.13 158.42 247.38 158.42 247.38 152"/>
        <polyline class="cls-6" points="244.54 152 248.38 152 248.38 132.22 256.94 132.22"/>
        <polyline class="cls-6" points="256.94 134.52 236.52 134.52 236.52 152 237.77 152"/>
        <line class="cls-6" x1="81.02" y1="66.44" x2="81.02" y2="134.5"/>
        <polyline class="cls-6" points="81.02 127.6 90.62 127.6 90.62 134.75 93.62 134.75 93.62 119.27 81.02 119.27"/>
        <polyline class="cls-6" points="98.65 69.19 98.65 66.69 122.06 66.69 122.06 134.75 98.65 134.75 98.65 132.35"/>
        <polyline class="cls-6" points="81.02 73.52 90.62 73.52 90.62 66.69 93.62 66.69 93.62 81.94 81.02 81.94"/>
        <polyline class="cls-6" points="98.65 81.94 113.56 81.94 113.56 119.27 98.65 119.27"/>
        <polyline class="cls-6" points="108.27 134.75 108.27 122.6 116.77 122.6"/>
        <line class="cls-6" x1="116.77" y1="134.75" x2="116.77" y2="127.73"/>
        <polyline class="cls-6" points="122.06 125.1 116.77 125.1 116.77 120.6"/>
        <line class="cls-6" x1="122.06" y1="117.79" x2="116.77" y2="117.79"/>
        <polyline class="cls-6" points="116.77 115.04 116.77 110.42 122.06 110.42"/>
        <line class="cls-6" x1="113.56" y1="111.69" x2="116.77" y2="111.69"/>
        <line class="cls-6" x1="113.56" y1="89.35" x2="116.77" y2="89.35"/>
        <polyline class="cls-6" points="122.06 90.69 116.77 90.69 116.77 85.94"/>
        <line class="cls-6" x1="116.77" y1="83.27" x2="122.06" y2="83.27"/>
        <polyline class="cls-6" points="116.77 80.77 116.77 76.19 122.06 76.19"/>
        <line class="cls-6" x1="116.77" y1="66.85" x2="116.77" y2="73.52"/>
        <polyline class="cls-6" points="108.21 66.69 108.21 78.98 116.77 78.98"/>
        <polyline class="cls-6" points="94.48 39.19 94.48 37.6 108.23 37.6 108.23 47.19 93.62 47.19"/>
        <line class="cls-6" x1="90.33" y1="28.98" x2="100.65" y2="28.98"/>
        <line class="cls-6" x1="99.02" y1="26.35" x2="109.71" y2="26.35"/>
        <line class="cls-6" x1="103.77" y1="15.73" x2="103.77" y2="26.35"/>
        <polyline class="cls-6" points="108.23 28.98 115.49 28.98 115.49 22.94 112.83 22.94 112.83 15.98"/>
        <polyline class="cls-6" points="138.58 31.42 122.96 31.42 122.96 23.29 151.39 23.29 151.39 31.42"/>
        <line class="cls-6" x1="145.21" y1="31.42" x2="141.52" y2="31.42"/>
        <line class="cls-6" x1="143.36" y1="23.17" x2="143.36" y2="31.42"/>
        <line class="cls-6" x1="136.98" y1="23.29" x2="136.98" y2="0.35"/>
        <line class="cls-6" x1="148.06" y1="31.42" x2="157.9" y2="31.42"/>
        <line class="cls-6" x1="161.19" y1="31.42" x2="171.1" y2="31.42"/>
        <line class="cls-6" x1="173.94" y1="31.42" x2="177.85" y2="31.42"/>
        <polyline class="cls-6" points="180.44 31.42 196.1 31.42 196.1 23.29 167.85 23.29 167.85 31.42"/>
        <line class="cls-6" x1="175.69" y1="31.42" x2="175.69" y2="23.29"/>
        <line class="cls-6" x1="182.94" y1="31.42" x2="182.94" y2="0.35"/>
        <line class="cls-6" x1="136.16" y1="31.42" x2="136.16" y2="25.27"/>
        <polyline class="cls-6" points="207.07 16.35 204.59 16.35 204.59 25.27 205.83 25.27 205.83 29.1"/>
        <line class="cls-6" x1="203.58" y1="29.1" x2="210.96" y2="29.1"/>
        <line class="cls-6" x1="209.33" y1="26.35" x2="220.08" y2="26.35"/>
        <line class="cls-6" x1="215.46" y1="16.35" x2="215.46" y2="26.35"/>
        <polyline class="cls-6" points="218.71 29.1 220.08 29.1 220.08 30.6 228.26 30.6 228.26 28.85"/>
        <polyline class="cls-6" points="242.02 42.35 242.02 51.73 256.79 51.73"/>
        <polyline class="cls-6" points="234.19 46.89 234.19 66.98 256.79 66.83"/>
        <line class="cls-6" x1="256.79" y1="68.9" x2="250.35" y2="68.9"/>
        <polyline class="cls-6" points="224.74 52.11 228.49 52.11 228.49 46.89 149.29 46.89 149.29 53.17 170.35 53.17 170.35 56.73 188.89 56.73 190.29 58.13 214.94 58.13 223.78 66.97 227.85 66.97 227.85 57.31 218.69 57.31"/>
        <line class="cls-6" x1="224.85" y1="55.73" x2="224.85" y2="57.31"/>
        <polyline class="cls-6" points="224.85 52.73 224.85 50.98 218.69 50.98"/>
        <polyline class="cls-6" points="218.69 46.89 218.69 58.15 214.02 58.15"/>
        <polyline class="cls-6" points="120.43 134.75 120.43 154.28 138.73 154.28 138.73 148.02 137.56 148.02 137.56 53.19 138.73 53.19 138.73 46.89 120.43 46.89 120.43 66.69"/>
        <polyline class="cls-6" points="170.35 56.73 159.92 56.73 159.92 53.17"/>
        <polyline class="cls-6" points="227.87 134.35 227.87 144.04 218.55 144.04 218.55 150.23 224.99 150.23 224.99 148.6"/>
        <polyline class="cls-6" points="224.99 150.23 225.74 150.23 225.74 154.28 148.78 154.28 148.78 148.1 170.19 148.1 170.19 144.35 189.32 144.35 190.37 143.3 218.55 143.3 218.55 144.04"/>
        <line class="cls-6" x1="222.57" y1="134.52" x2="213.77" y2="143.33"/>
        <polyline class="cls-6" points="225.74 154.28 227.87 154.28 227.87 152.17 227.87 149.28 224.99 149.28"/>
        <line class="cls-6" x1="224.99" y1="144.92" x2="224.99" y2="144.04"/>
        <polyline class="cls-6" points="170.19 144.35 159.93 144.35 159.93 148.1"/>
    </g>
    <g id="圖層_4" data-name="圖層 4">
        <rect class="cls-7" x="90.62" y="66.44" width="3" height="3"/>
        <rect class="cls-7" x="112.81" y="66.44" width="3" height="3"/>
        <rect class="cls-7" x="223.36" y="66.61" width="5.45" height="2.54"/>
        <rect class="cls-7" x="248.14" y="66.61" width="2.54" height="2.54"/>
        <rect class="cls-7" x="248.14" y="88.73" width="5.61" height="2.54"/>
        <rect class="cls-7" x="248.14" y="110.64" width="5.61" height="2.54"/>
        <rect class="cls-7" x="222.57" y="131.98" width="5.45" height="2.54"/>
        <rect class="cls-7" x="247.35" y="131.98" width="2.54" height="2.54"/>
        <rect class="cls-7" x="134.81" y="66.44" width="2.75" height="3"/>
        <rect class="cls-7" x="91.12" y="46.61" width="2.5" height="5.5"/>
        <rect class="cls-7" x="113.2" y="46.61" width="2.25" height="5.5"/>
        <rect class="cls-7" x="135.29" y="46.61" width="2.27" height="5.5"/>
        <rect class="cls-7" x="149.09" y="46.61" width="2.27" height="5.5"/>
        <rect class="cls-7" x="168.67" y="46.61" width="2.27" height="5.5"/>
        <rect class="cls-7" x="182.67" y="46.61" width="2.27" height="5.5"/>
        <rect class="cls-7" x="204.59" y="46.61" width="2.27" height="5.5"/>
        <rect class="cls-7" x="226.54" y="46.61" width="2.27" height="2.5"/>
        <rect class="cls-7" x="90.62" y="131.75" width="3" height="3"/>
        <rect class="cls-7" x="112.81" y="131.75" width="3" height="3"/>
        <rect class="cls-7" x="134.81" y="131.75" width="2.75" height="3"/>
        <rect class="cls-7" x="91.29" y="149.28" width="2.33" height="5"/>
        <rect class="cls-7" x="113.29" y="149.28" width="2.17" height="5"/>
        <rect class="cls-7" x="135.04" y="149.28" width="2.52" height="5"/>
        <rect class="cls-7" x="148.79" y="149.28" width="2.52" height="5"/>
        <rect class="cls-7" x="167.67" y="149.28" width="2.52" height="5"/>
        <rect class="cls-7" x="181.67" y="149.28" width="2.52" height="5"/>
        <rect class="cls-7" x="203.75" y="149.28" width="2.52" height="5"/>
        <rect class="cls-7" x="225.5" y="151.76" width="2.52" height="2.52"/>
        <rect class="cls-7" x="90.5" y="175.53" width="2.31" height="2.5"/>
        <rect class="cls-7" x="69.18" y="151.78" width="2.31" height="2.5"/>
        <rect class="cls-7" x="66.49" y="132" width="5" height="2.5"/>
        <rect class="cls-7" x="66.49" y="110.42" width="5" height="2.5"/>
        <rect class="cls-7" x="66.49" y="88.42" width="5" height="2.5"/>
        <rect class="cls-7" x="66.49" y="66.69" width="5" height="2.5"/>
        <rect class="cls-7" x="68.5" y="175.53" width="2.31" height="2.5"/>
        <rect class="cls-7" x="112.56" y="175.53" width="2.31" height="2.5"/>
        <rect class="cls-7" x="148.39" y="175.53" width="2.31" height="2.5"/>
        <rect class="cls-7" x="134.45" y="175.53" width="2.31" height="2.5"/>
        <rect class="cls-7" x="148.39" y="192.03" width="2.31" height="2.5"/>
        <rect class="cls-7" x="167.89" y="192.03" width="2.31" height="2.5"/>
        <rect class="cls-7" x="167.89" y="175.53" width="2.31" height="2.5"/>
        <rect class="cls-7" x="181.81" y="175.53" width="2.31" height="2.5"/>
        <rect class="cls-7" x="203.86" y="175.53" width="2.31" height="2.5"/>
        <rect class="cls-7" x="225.94" y="175.53" width="2.31" height="2.5"/>
        <rect class="cls-7" x="247.55" y="151.78" width="2.31" height="2.5"/>
        <rect class="cls-7" x="247.65" y="175.53" width="2.31" height="2.5"/>
        <rect class="cls-7" x="91.12" y="22.94" width="2.33" height="2.33"/>
        <rect class="cls-7" x="113.16" y="22.94" width="2.33" height="2.33"/>
        <rect class="cls-7" x="134.99" y="22.94" width="2.33" height="2.33"/>
        <rect class="cls-7" x="149.06" y="22.94" width="2.33" height="2.33"/>
        <rect class="cls-7" x="149.06" y="6.44" width="2.33" height="2.33"/>
        <rect class="cls-7" x="168.64" y="6.44" width="2.33" height="2.33"/>
        <rect class="cls-7" x="168.64" y="22.94" width="2.33" height="2.33"/>
        <rect class="cls-7" x="182.61" y="22.94" width="2.33" height="2.33"/>
        <rect class="cls-7" x="204.53" y="22.94" width="2.33" height="2.33"/>
        <rect class="cls-7" x="226.5" y="22.94" width="2.33" height="2.33"/>
        <rect class="cls-7" x="237.67" y="31.61" width="1.93" height="1.93"/>
        <rect class="cls-7" x="248.44" y="46.89" width="1.93" height="1.93"/>
    </g>
</svg>
